<svg width="39" height="39" viewBox="0 0 39 39" fill="none" xmlns="http://www.w3.org/2000/svg">
<path d="M34.125 12.5938H4.875C4.20875 12.5938 3.65625 12.0412 3.65625 11.375C3.65625 10.7088 4.20875 10.1562 4.875 10.1562H34.125C34.7912 10.1562 35.3438 10.7088 35.3438 11.375C35.3438 12.0412 34.7912 12.5938 34.125 12.5938Z" fill="#0500FF"/>
<path d="M34.125 20.7188H4.875C4.20875 20.7188 3.65625 20.1662 3.65625 19.5C3.65625 18.8338 4.20875 18.2812 4.875 18.2812H34.125C34.7912 18.2812 35.3438 18.8338 35.3438 19.5C35.3438 20.1662 34.7912 20.7188 34.125 20.7188Z" fill="#0500FF"/>
<path d="M34.125 28.8438H4.875C4.20875 28.8438 3.65625 28.2912 3.65625 27.625C3.65625 26.9588 4.20875 26.4062 4.875 26.4062H34.125C34.7912 26.4062 35.3438 26.9588 35.3438 27.625C35.3438 28.2912 34.7912 28.8438 34.125 28.8438Z" fill="#0500FF"/>
</svg>
