<svg width="91" height="51" viewBox="0 0 91 51" fill="none" xmlns="http://www.w3.org/2000/svg">
<path d="M79.4688 50.0262C73.3889 50.0262 68.9089 46.513 67.6289 41.0835L73.3889 38.8478C73.7089 42.0416 76.2688 44.4051 79.4688 44.4051C82.6688 44.4051 84.2688 42.6804 84.2688 40.7641C84.2688 38.9117 82.9888 37.9535 80.4288 37.5064C79.3408 37.3147 78.2528 37.0592 77.2288 36.8037C72.1089 35.5262 68.5889 32.4601 68.5889 27.6693C68.5889 21.9204 74.0289 18.7266 79.1488 18.7266C84.5888 18.7266 89.3887 22.2398 90.0287 27.6693H83.6288C83.6288 25.753 81.7088 24.3477 79.1488 24.3477C76.5888 24.3477 74.6689 25.753 74.6689 27.6693C74.6689 29.5856 76.2048 30.6715 78.5088 31.1187L81.7088 31.7574C86.7008 32.8434 90.3487 35.6539 90.3487 40.7641C90.3487 45.8742 85.5488 50.0262 79.4688 50.0262Z" fill="#0500FF"/>
<path d="M48.7656 25.1131V19.3641H53.8856V10.4214C53.8856 4.67246 57.0856 0.839844 63.4855 0.839844L66.6855 1.47861V7.22753L63.1655 6.58876C61.2455 6.58876 60.2855 7.8663 60.2855 9.78261V19.3641H75.5623V25.1131H60.2855V49.3863H53.8856V25.1131H48.7656Z" fill="#0500FF"/>
<path d="M46.8356 35.9733H25.0757C25.0757 40.4447 28.2757 44.2773 33.7157 44.2773C37.5556 44.2773 40.1796 42.361 41.1396 39.8059L46.5156 42.361C43.9556 46.8324 39.4756 50.0262 33.3957 50.0262C25.3957 50.0262 18.6758 43.6385 18.6758 34.3764C18.6758 25.1142 25.0757 18.7266 33.3957 18.7266C41.0756 18.7266 47.4756 24.7949 47.4756 34.057L46.8356 35.9733ZM33.3957 24.4755C28.9157 24.4755 26.3557 27.0306 25.3957 30.3522H40.7556C40.4356 27.0306 37.2356 24.4755 33.3957 24.4755Z" fill="#0500FF"/>
<path d="M0.734375 49.3875V19.3653H6.49433L7.13433 22.5592L7.45432 22.8786L7.77432 22.5592C9.69431 20.0041 12.2543 18.7266 14.8143 18.7266C16.0943 18.7266 28.0641 18.7266 29.3441 19.3653V25.1142H14.1743C10.3983 25.1142 7.26232 28.1803 7.13433 31.8852V49.3875H0.734375Z" fill="#0500FF"/>
</svg>
