<svg width="90" height="50" viewBox="0 0 90 50" fill="none" xmlns="http://www.w3.org/2000/svg">
<path fill-rule="evenodd" clip-rule="evenodd" d="M48.2391 17.9228V24.2946H53.3811V48.5601H59.8085V24.2946H68.4878C66.8342 30.1733 70.782 34.7346 76.8238 35.9978C77.8522 36.2534 78.9449 36.509 80.0375 36.7007C82.6085 37.1479 83.894 38.1064 83.894 39.9593C83.894 41.8761 82.2871 43.6013 79.0734 43.6013C75.8597 43.6013 73.2887 41.2372 72.9674 38.0425L67.1827 40.2788C68.4682 45.7098 72.9674 49.224 79.0734 49.224C85.1794 49.224 90 45.0709 90 39.9593C90 34.8478 86.3364 32.0364 81.323 30.9502L78.1093 30.3112C75.7954 29.864 74.2529 28.7778 74.2529 26.8609C74.2529 24.9441 76.1811 23.5384 78.752 23.5384C81.323 23.5384 83.2512 24.9441 83.2512 26.8609H89.6786C88.3029 17.577 77.7804 17.9454 77.7925 17.9162L59.8085 17.9155V8.9455C59.8085 7.02866 60.7726 5.75077 62.7008 5.75077L66.2359 6.38972V0.639186L63.0222 0.000244141C56.5948 0.000244141 53.3811 3.83393 53.3811 9.58444V17.9228H48.2391ZM46.299 35.1672H24.4458C24.4458 39.6399 27.6595 43.4735 33.1228 43.4735C36.9792 43.4735 39.6145 41.5567 40.5786 39.0009L45.9776 41.5567C43.4066 46.0293 38.9074 49.224 32.8014 49.224C24.7671 49.224 18.0184 42.8346 18.0184 33.5699C18.0184 29.9163 18.7879 26.7099 20.2325 24.1662L13.4976 24.0563C9.70538 24.0563 6.55595 27.3718 6.42741 31.0777V48.5847H0V17.933H5.78467L6.42741 21.7491L6.74878 22.0685L7.07015 21.7491C8.99837 19.1933 11.5694 17.9303 14.1403 17.9142C18.9181 17.8844 30.6825 17.9191 30.9921 17.9191C39.4871 17.7456 47.1135 24.563 46.9417 33.2504L46.299 35.1672ZM32.8014 23.6662C28.3022 23.6662 25.7313 26.222 24.7671 29.5445H40.1929C39.8715 26.222 36.6578 23.6662 32.8014 23.6662Z" fill="black"/>
</svg>
