<svg width="90" height="50" viewBox="0 0 90 50" fill="none" xmlns="http://www.w3.org/2000/svg">
<path fill-rule="evenodd" clip-rule="evenodd" d="M48.2391 17.9225V24.2944H53.3811V48.5598H59.8085V24.2944H68.4878C66.8342 30.173 70.782 34.7343 76.8238 35.9976C77.8522 36.2532 78.9449 36.5087 80.0375 36.7004C82.6085 37.1477 83.894 38.1061 83.894 39.9591C83.894 41.8759 82.2871 43.601 79.0734 43.601C75.8597 43.601 73.2887 41.237 72.9674 38.0422L67.1827 40.2785C68.4682 45.7096 72.9674 49.2238 79.0734 49.2238C85.1794 49.2238 90 45.0706 90 39.9591C90 34.8475 86.3364 32.0361 81.323 30.9499L78.1093 30.311C75.7954 29.8637 74.2529 28.7775 74.2529 26.8607C74.2529 24.9438 76.1811 23.5382 78.752 23.5382C81.323 23.5382 83.2512 24.9438 83.2512 26.8607H89.6786C88.3029 17.5767 77.7804 17.9451 77.7925 17.9159L59.8085 17.9153V8.94525C59.8085 7.02842 60.7726 5.75053 62.7008 5.75053L66.2359 6.38947V0.638941L63.0222 0C56.5948 0 53.3811 3.83369 53.3811 9.5842V17.9225H48.2391ZM46.299 35.167H24.4458C24.4458 39.6396 27.6595 43.4733 33.1228 43.4733C36.9792 43.4733 39.6145 41.5565 40.5786 39.0007L45.9776 41.5565C43.4066 46.0291 38.9074 49.2238 32.8014 49.2238C24.7671 49.2238 18.0184 42.8343 18.0184 33.5696C18.0184 29.9161 18.7879 26.7097 20.2325 24.1659L13.4976 24.0561C9.70538 24.0561 6.55595 27.3715 6.42741 31.0774V48.5845H0V17.9328H5.78467L6.42741 21.7488L6.74878 22.0683L7.07015 21.7488C8.99837 19.193 11.5694 17.93 14.1403 17.914C18.9181 17.8841 30.6825 17.9188 30.9921 17.9188C39.4871 17.7453 47.1135 24.5627 46.9417 33.2502L46.299 35.167ZM32.8014 23.666C28.3022 23.666 25.7313 26.2218 24.7671 29.5443H40.1929C39.8715 26.2218 36.6578 23.666 32.8014 23.666Z" fill="white"/>
</svg>
