<svg width="90" height="50" viewBox="0 0 90 50" fill="none" xmlns="http://www.w3.org/2000/svg">
<path fill-rule="evenodd" clip-rule="evenodd" d="M48.2385 17.8479V23.5984H53.3804V48.5598H59.8078V23.5984H68.7972C68.3801 24.5643 68.1459 25.6453 68.1459 26.8359C68.1459 31.628 71.681 34.6949 76.8229 35.9728C77.8513 36.2284 78.944 36.484 80.0366 36.6757C82.6076 37.1229 83.8931 38.0813 83.8931 39.9343C83.8931 41.8511 82.2862 43.5763 79.0725 43.5763C75.8588 43.5763 73.2879 41.2122 72.9665 38.0174L67.1818 40.2537C68.4673 45.6848 72.9665 49.199 79.0725 49.199C85.1786 49.199 89.9991 45.0458 89.9991 39.9343C89.9991 34.8227 86.3355 32.0114 81.3221 30.9251L78.1084 30.2862C75.7946 29.8389 74.252 28.7527 74.252 26.8359C74.252 24.9191 76.1802 23.5134 78.7512 23.5134C81.3221 23.5134 83.2504 24.9191 83.2504 26.8359H89.6777C89.035 21.4049 84.2145 17.8907 78.7512 17.8907C78.4775 17.8907 78.2029 17.8997 77.9283 17.9177L59.8078 17.8479V8.94523C59.8078 7.02839 60.7719 5.7505 62.7001 5.7505L66.2352 6.38945V0.638944L63.0215 0C56.5941 0 53.3804 3.83367 53.3804 9.58417V17.8479H48.2385ZM46.2986 35.1422H24.4455C24.4455 39.6148 27.6592 43.4485 33.1225 43.4485C36.9789 43.4485 39.6141 41.5316 40.5782 38.9759L45.9773 41.5316C43.4063 46.0042 38.9071 49.199 32.8011 49.199C24.7668 49.199 18.0181 42.8095 18.0181 33.5448C18.0181 29.9575 18.9817 26.8012 20.6478 24.28H13.4976C9.70538 24.28 6.55595 27.3469 6.42741 31.0528V48.5599H0V18.5295H5.78467L6.42741 21.7242L6.74878 22.0437L7.07015 21.7242C8.99837 19.1684 11.5693 17.9204 14.1403 17.9204C14.3846 17.9204 15.132 17.913 16.2007 17.9025C20.4515 17.8605 29.7861 17.7683 32.7643 17.8907C32.7765 17.8907 32.7888 17.8907 32.8011 17.8907C40.514 17.8907 46.9414 23.9607 46.9414 33.2253L46.2986 35.1422ZM32.8011 23.6412C28.3019 23.6412 25.7309 26.197 24.7668 29.5195H40.1926C39.8712 26.197 36.6575 23.6412 32.8011 23.6412Z" fill="black"/>
</svg>
