<svg width="159" height="87" viewBox="0 0 159 87" fill="none" xmlns="http://www.w3.org/2000/svg">
<g id="A_Logo">
<path id="Union" fill-rule="evenodd" clip-rule="evenodd" d="M84.9868 31.3181V41.4086H94.0094V85.2087H105.288V41.4086H121.065C120.333 43.1037 119.922 45.0011 119.922 47.0909C119.922 55.4996 126.125 60.8812 135.147 63.1236C136.952 63.572 138.869 64.0205 140.787 64.3568C145.298 65.1417 147.554 66.8234 147.554 70.0748C147.554 73.4383 144.734 76.4654 139.095 76.4654C133.456 76.4654 128.944 72.3171 128.381 66.7113L118.23 70.6354C120.486 80.1653 128.38 86.3317 139.095 86.3317C149.809 86.3317 158.268 79.0441 158.268 70.0748C158.268 61.1055 151.839 56.1723 143.042 54.2663L137.403 53.1452C133.343 52.3604 130.636 50.4544 130.636 47.0909C130.636 43.7274 134.02 41.2608 138.531 41.2608C143.042 41.2608 146.426 43.7274 146.426 47.0909H157.704C156.576 37.561 148.117 31.3945 138.531 31.3945C138.058 31.3945 137.583 31.41 137.109 31.4406L105.288 31.3181V15.6963C105.288 12.3328 106.979 10.0905 110.363 10.0905L116.566 11.2117V1.12116L110.927 0C99.6485 0 94.0094 6.727 94.0094 16.8175V31.3181H84.9868ZM81.5763 61.6592H43.2302C43.2302 69.5074 48.8693 76.2344 58.4558 76.2344C65.2228 76.2344 69.8469 72.8709 71.5386 68.3862L81.0124 72.8709C76.501 80.7191 68.6063 86.3249 57.8919 86.3249C43.7941 86.3249 31.9519 75.1132 31.9519 58.8563C31.9519 52.5608 33.6432 47.0218 36.5674 42.5976H24.0242C17.37 42.5976 11.8437 47.9792 11.6181 54.482V85.2019H0.339844V32.5071H10.4903L11.6181 38.113L12.182 38.6735L12.7459 38.113C16.1294 33.6283 20.6407 31.4384 25.152 31.4384C25.5807 31.4384 26.8921 31.4254 28.7674 31.4069C36.2436 31.3331 52.6813 31.1708 57.8677 31.3878C57.8758 31.3878 57.8838 31.3877 57.8919 31.3877C71.4258 31.3877 82.7041 42.0388 82.7041 58.2957L81.5763 61.6592ZM57.8919 41.4782C49.9971 41.4782 45.4858 45.9629 43.7941 51.793H70.8619C70.298 45.9629 64.6589 41.4782 57.8919 41.4782Z" fill="black"/>
</g>
</svg>
