<svg width="27" height="32" viewBox="0 0 27 32" fill="none" xmlns="http://www.w3.org/2000/svg">
<path d="M13.5354 2.89062C8.78992 2.89062 4.93329 6.76788 4.93329 11.5388V15.7043C4.93329 16.5835 4.56053 17.924 4.11608 18.6735L2.46734 21.4265C1.44941 23.1273 2.15192 25.0155 4.01573 25.6497C10.1949 27.7252 16.8616 27.7252 23.0408 25.6497C24.7756 25.0731 25.5355 23.012 24.5892 21.4265L22.9405 18.6735C22.5104 17.924 22.1376 16.5835 22.1376 15.7043V11.5388C22.1376 6.78229 18.2666 2.89062 13.5354 2.89062Z" stroke="#0500FF" stroke-width="2.14286" stroke-miterlimit="10" stroke-linecap="round"/>
<path d="M16.1914 3.3083C15.7469 3.17858 15.2882 3.07768 14.815 3.02003C13.4387 2.84706 12.1197 2.94796 10.8867 3.3083C11.3025 2.24169 12.3347 1.49219 13.5391 1.49219C14.7434 1.49219 15.7756 2.24169 16.1914 3.3083Z" stroke="#0500FF" stroke-width="2.14286" stroke-miterlimit="10" stroke-linecap="round" stroke-linejoin="round"/>
<path d="M17.8365 26.168C17.8365 28.5462 15.901 30.492 13.5355 30.492C12.3598 30.492 11.2702 30.002 10.496 29.2236C9.72183 28.4453 9.23438 27.3499 9.23438 26.168" stroke="#0500FF" stroke-width="2.14286" stroke-miterlimit="10"/>
</svg>
