<svg width="390" height="390" viewBox="0 0 390 390" fill="none" xmlns="http://www.w3.org/2000/svg">
<g clip-path="url(#clip0_3029_51614)">
<rect width="390" height="390" rx="14.3911" fill="white"/>
<path fill-rule="evenodd" clip-rule="evenodd" d="M194.612 423.418H194.099C194.184 423.418 194.27 423.418 194.356 423.418C194.441 423.418 194.527 423.418 194.612 423.418ZM194.356 121.293C277.785 121.293 345.418 188.926 345.418 272.356L254.776 272.355C254.391 239.712 227.809 213.369 195.075 213.369C162.34 213.369 135.759 239.712 135.373 272.355H43.293C43.2931 188.926 110.926 121.293 194.356 121.293Z" fill="#0500FF"/>
<circle cx="342.899" cy="50.8955" r="28.665" fill="#0500FF"/>
<path d="M353.767 41.9529H348.414C348.414 39.0332 345.738 36.6001 342.332 36.6001C338.731 36.6001 336.492 38.7899 336.492 41.7096C336.492 44.386 338.195 46.2838 342.088 47.3057C343.402 47.6464 344.716 47.9383 345.981 48.2303C350.847 49.3982 354.74 52.4153 354.74 58.498C354.74 63.8509 350.361 69.1064 342.818 69.1064C336.2 69.1064 330.507 63.9482 330.409 58.498L335.519 56.5516C335.422 61.3691 339.169 64.1915 342.818 64.1915C346.955 64.1915 349.631 61.9044 349.631 58.498C349.631 54.8484 346.468 53.6318 344.035 53.1452C342.867 52.9019 341.358 52.5126 340.142 52.1233C335.519 50.7121 331.383 47.5491 331.383 41.4663C331.383 35.8701 336.2 31.8312 342.332 31.8312C348.658 31.8312 353.767 36.1134 353.767 41.9529Z" fill="white"/>
</g>
<rect x="1.07934" y="1.07934" width="387.841" height="387.841" rx="13.3118" stroke="white" stroke-width="2.15867"/>
<defs>
<clipPath id="clip0_3029_51614">
<rect width="390" height="390" rx="14.3911" fill="white"/>
</clipPath>
</defs>
</svg>
