<svg width="49" height="89" viewBox="0 0 49 89" fill="none" xmlns="http://www.w3.org/2000/svg">
<path d="M49 0H0V89L24.5 76.9322L49 89V0Z" fill="#0400D8"/>
<rect width="24" height="24.1356" transform="translate(13 12.0664)" fill="#0400D8"/>
<path d="M24.25 30.4201H22C20.9 30.4201 20 31.3252 20 32.4314V32.6828H19C18.59 32.6828 18.25 33.0248 18.25 33.4371C18.25 33.8494 18.59 34.1913 19 34.1913H31C31.41 34.1913 31.75 33.8494 31.75 33.4371C31.75 33.0248 31.41 32.6828 31 32.6828H30V32.4314C30 31.3252 29.1 30.4201 28 30.4201H25.75V28.1172C25.5 28.1474 25.25 28.1574 25 28.1574C24.75 28.1574 24.5 28.1474 24.25 28.1172V30.4201Z" fill="white"/>
<path d="M31.4803 23.7726C32.1403 23.5212 32.7203 23.1089 33.1803 22.6463C34.1103 21.6104 34.7203 20.3735 34.7203 18.9254C34.7203 17.4772 33.5903 16.3408 32.1503 16.3408H31.5903C30.9403 15.0033 29.5803 14.0781 28.0003 14.0781H22.0003C20.4203 14.0781 19.0603 15.0033 18.4103 16.3408H17.8503C16.4103 16.3408 15.2803 17.4772 15.2803 18.9254C15.2803 20.3735 15.8903 21.6104 16.8203 22.6463C17.2803 23.1089 17.8603 23.5212 18.5203 23.7726C19.5603 26.3471 22.0603 28.1572 25.0003 28.1572C27.9403 28.1572 30.4403 26.3471 31.4803 23.7726ZM27.8403 20.5646L27.2203 21.3289C27.1203 21.4395 27.0503 21.6607 27.0603 21.8116L27.1203 22.7971C27.1603 23.4005 26.7303 23.7122 26.1703 23.491L25.2603 23.129C25.1203 23.0787 24.8803 23.0787 24.7403 23.129L23.8303 23.491C23.2703 23.7122 22.8403 23.4005 22.8803 22.7971L22.9403 21.8116C22.9503 21.6607 22.8803 21.4395 22.7803 21.3289L22.1603 20.5646C21.7703 20.102 21.9403 19.5891 22.5203 19.4382L23.4703 19.1969C23.6203 19.1567 23.8003 19.0159 23.8803 18.8851L24.4103 18.0605C24.7403 17.5476 25.2603 17.5476 25.5903 18.0605L26.1203 18.8851C26.2003 19.0159 26.3803 19.1567 26.5303 19.1969L27.4803 19.4382C28.0603 19.5891 28.2303 20.102 27.8403 20.5646Z" fill="white"/>
</svg>
