<svg width="118" height="148" viewBox="0 0 118 148" fill="none" xmlns="http://www.w3.org/2000/svg">
<path d="M117.753 140.658C118.117 140.243 118.074 139.611 117.659 139.247L110.884 133.322C110.468 132.959 109.836 133.001 109.473 133.417C109.109 133.833 109.152 134.464 109.567 134.828L115.589 140.094L110.323 146.116C109.959 146.532 110.002 147.164 110.417 147.527C110.833 147.891 111.465 147.849 111.828 147.433L117.753 140.658ZM0.503422 0.92227C0.425468 1.92212 0.35639 2.94123 0.296694 3.97836L2.29339 4.09329C2.35232 3.06947 2.42049 2.06387 2.49737 1.07773L0.503422 0.92227ZM0.0595993 10.1733C0.0201695 12.1846 0.0152465 14.2481 0.0479435 16.3564L2.0477 16.3254C2.01537 14.2404 2.02025 12.2003 2.05922 10.2125L0.0595993 10.1733ZM0.247793 22.5233C0.347285 24.547 0.481544 26.6029 0.653053 28.685L2.6463 28.5209C2.47662 26.4609 2.3438 24.427 2.24538 22.4251L0.247793 22.5233ZM1.26181 34.8324C1.49624 36.8572 1.76662 38.9006 2.07507 40.9575L4.05296 40.6609C3.74789 38.6266 3.48045 36.6054 3.24853 34.6024L1.26181 34.8324ZM3.09626 47.0526C3.46939 49.0652 3.88023 51.0856 4.33074 53.1094L6.28295 52.6748C5.83775 50.6749 5.43165 48.6778 5.06274 46.688L3.09626 47.0526ZM5.78559 59.1185C6.30617 61.1048 6.86679 63.0899 7.46929 65.0693L9.38262 64.4869C8.78794 62.5332 8.23441 60.5733 7.72025 58.6115L5.78559 59.1185ZM9.39152 70.9494C10.0718 72.8923 10.795 74.8254 11.5628 76.7445L13.4197 76.0015C12.6631 74.1104 11.9501 72.2047 11.2791 70.2885L9.39152 70.9494ZM13.9943 82.4378C14.8487 84.3149 15.749 86.1738 16.6972 88.0103L18.4744 87.0928C17.5418 85.2865 16.6558 83.4573 15.8147 81.6093L13.9943 82.4378ZM19.6823 93.4401C20.7246 95.2222 21.8162 96.9777 22.959 98.7026L24.6263 97.598C23.5047 95.9051 22.4327 94.1812 21.4087 92.4304L19.6823 93.4401ZM26.5346 103.77C27.7746 105.421 29.0669 107.037 30.4134 108.614L31.9345 107.316C30.6157 105.771 29.3494 104.187 28.1337 102.569L26.5346 103.77ZM34.5951 113.203C36.0334 114.681 37.526 116.117 39.0748 117.506L40.4105 116.018C38.896 114.659 37.4358 113.254 36.0284 111.808L34.5951 113.203ZM43.8414 121.495C45.4628 122.758 47.1391 123.974 48.8718 125.138L49.9871 123.478C48.2938 122.34 46.6555 121.152 45.0706 119.917L43.8414 121.495ZM54.1438 128.416C55.9187 129.435 57.7469 130.403 59.6298 131.316L60.5025 129.516C58.6615 128.623 56.8742 127.677 55.1395 126.681L54.1438 128.416ZM65.3003 133.83C67.1915 134.594 69.1331 135.305 71.1261 135.961L71.7515 134.061C69.7997 133.418 67.8993 132.722 66.0488 131.976L65.3003 133.83ZM77.0816 137.715C79.0562 138.23 81.0773 138.694 83.146 139.104L83.5351 137.142C81.5049 136.74 79.5224 136.285 77.5867 135.779L77.0816 137.715ZM89.2491 140.137C91.2506 140.42 93.2935 140.654 95.3786 140.839L95.5549 138.847C93.5037 138.665 91.4952 138.434 89.5285 138.157L89.2491 140.137ZM101.56 141.233C103.6 141.315 105.678 141.35 107.795 141.339L107.784 139.339C105.697 139.35 103.649 139.315 101.639 139.235L101.56 141.233ZM113.924 141.177C114.963 141.128 116.01 141.068 117.067 140.998L116.934 139.002C115.89 139.072 114.856 139.131 113.83 139.179L113.924 141.177Z" fill="#174BD0"/>
</svg>
