<svg width="1662" height="870" viewBox="0 0 1662 870" fill="none" xmlns="http://www.w3.org/2000/svg">
<path fill-rule="evenodd" clip-rule="evenodd" d="M1662 30.0001C1662 13.4315 1648.57 7.07499e-05 1632 7.00256e-05L30 0C13.4315 -7.24233e-07 3.23901e-05 13.4315 3.23901e-05 30L0 741C-7.24231e-07 757.568 13.4315 771 30 771H52V800C52 816.568 65.4315 830 82 830H98V840C98 856.568 111.431 870 128 870L1534 870C1550.57 870 1564 856.569 1564 840V830H1580C1596.57 830 1610 816.569 1610 800V771H1632C1648.57 771 1662 757.569 1662 741V30.0001Z" fill="#0500FF"/>
</svg>
