<svg width="107" height="108" viewBox="0 0 107 108" fill="none" xmlns="http://www.w3.org/2000/svg">
<g filter="url(#filter0_di_479_4942)">
<path d="M6 51.5C6 25.2665 27.2665 4 53.5 4C79.7335 4 101 25.2665 101 51.5C101 77.7335 79.7335 99 53.5 99C27.2665 99 6 77.7335 6 51.5Z" fill="#046EE7"/>
<path d="M37.6369 30.8692C38.008 31.5102 38.3284 32.168 38.5983 32.8427C38.8682 33.4837 38.9694 34.1922 38.9019 34.9681C38.8682 35.5078 38.8513 36.0476 38.8513 36.5874C38.8513 37.1272 38.8682 37.6669 38.9019 38.2067C39.0032 38.9489 38.9694 39.6911 38.8007 40.4332C38.6658 41.1417 38.379 41.7827 37.9405 42.3562C37.6031 42.9634 37.1814 43.52 36.6754 44.0261C36.1694 44.5321 35.6633 45.0213 35.1573 45.4936C34.5501 46.0333 33.8922 46.455 33.1838 46.7587C32.5091 47.0285 31.7837 47.2816 31.0078 47.5177H33.8922C34.6681 47.5177 35.1236 47.6189 35.2585 47.8213C35.4272 47.99 35.5453 48.4623 35.6127 49.2382C35.8489 52.1057 35.9332 54.9733 35.8658 57.8408C35.7983 60.7083 35.7983 63.5758 35.8658 66.4434V68.5181C35.5284 68.5856 35.2079 68.6699 34.9043 68.7711C34.6007 68.8723 34.3139 68.9229 34.044 68.9229C33.3018 68.9566 32.5765 68.9566 31.8681 68.9229C31.1934 68.9229 30.5018 68.9229 29.7934 68.9229C29.2873 68.9229 28.95 68.8386 28.7813 68.6699C28.6126 68.535 28.4439 68.2313 28.2753 67.759C28.0391 66.8819 27.921 66.0217 27.921 65.1783C27.921 64.3349 27.8873 63.4915 27.8198 62.6481C27.7186 61.5011 27.6343 60.3372 27.5668 59.1565C27.5331 57.9757 27.4825 56.8119 27.415 55.6648C27.3813 55.0239 27.3475 54.4166 27.3138 53.8431C27.3138 53.2359 27.2801 52.6455 27.2126 52.072C27.1788 51.4985 27.415 51.0599 27.921 50.7563C27.6849 50.4527 27.4825 50.1659 27.3138 49.8961C27.1451 49.6262 27.2463 49.272 27.6174 48.8334C27.7861 48.5972 27.8536 48.2936 27.8198 47.9225C27.8198 47.5177 27.803 47.1466 27.7692 46.8093C27.7355 46.0333 27.668 45.2912 27.5668 44.5827C27.4993 43.8405 27.4487 43.0984 27.415 42.3562C27.3813 40.4332 27.3475 38.5103 27.3138 36.5874C27.3138 34.6307 27.2801 32.6741 27.2126 30.7174C27.2126 30.3126 27.2294 29.9077 27.2632 29.5029C27.3307 29.0644 27.3644 28.6258 27.3644 28.1872C27.3644 27.7149 27.3138 27.2089 27.2126 26.6691C27.1114 25.9607 27.3981 25.5221 28.0728 25.3534C28.4777 25.286 28.8656 25.2354 29.2367 25.2016C29.6078 25.1679 29.9789 25.2691 30.35 25.5053C30.4849 25.6065 30.6367 25.6739 30.8054 25.7077C30.9741 25.7414 31.109 25.7751 31.2102 25.8089C31.2102 25.8089 31.2608 25.8426 31.3621 25.9101C31.497 25.9438 31.7331 26.1125 32.0705 26.4161C34.4657 27.2595 36.3212 28.7439 37.6369 30.8692ZM26.5547 49.4406C26.5547 50.419 26.6053 51.3973 26.7065 52.3756C26.8078 53.3202 26.7909 54.2817 26.6559 55.26C26.521 56.1371 26.5041 57.0143 26.6053 57.8914C26.7403 58.7348 26.7572 59.595 26.6559 60.4722C26.5547 61.6866 26.4873 62.918 26.4535 64.1662C26.4198 65.4144 26.3692 66.6795 26.3017 67.9615C26.3017 68.0964 26.268 68.2313 26.2005 68.3663C26.133 68.535 26.0824 68.7036 26.0487 68.8723H14.7642V25.2522H26.3017C26.3692 25.8595 26.4367 26.4667 26.5041 27.074C26.6053 27.6812 26.6559 28.2884 26.6559 28.8957C26.7572 31.0548 26.7065 33.2138 26.5041 35.3729C26.4029 36.4524 26.4029 37.532 26.5041 38.6115C26.6391 39.6911 26.7065 40.7706 26.7065 41.8501C26.7065 42.8622 26.6728 43.8743 26.6053 44.8863C26.5379 45.8984 26.4873 46.8936 26.4535 47.8719C26.4535 48.1081 26.4535 48.3611 26.4535 48.631C26.4873 48.9009 26.521 49.1707 26.5547 49.4406Z" fill="#F3F2ED"/>
<path d="M48.2748 62.3888C48.2009 63.9393 48.0928 65.5057 47.9506 67.0881C47.8421 68.6714 47.7336 70.2547 47.6251 71.838C47.58 72.2755 47.5176 72.7295 47.4379 73.1999C47.3928 73.6374 47.3646 74.0754 47.3533 74.5138C47.3674 76.5728 47.2982 78.5958 47.1454 80.5829C46.9936 82.5363 46.9088 84.5083 46.891 86.4989C46.9107 87.0393 46.7831 87.4072 46.508 87.6026C46.2658 87.8325 45.8581 87.9401 45.2848 87.9252C44.6103 87.9078 44.1213 87.8951 43.8178 87.8872C43.5142 87.8794 43.2622 87.8391 43.0616 87.7664C42.861 87.6937 42.5943 87.5687 42.2614 87.3913C42.1239 87.489 41.9691 87.6031 41.7969 87.7337C41.6239 87.8979 41.3991 88.1114 41.1223 88.3742C40.9926 88.1684 40.8634 87.9457 40.7346 87.7061C40.6387 87.5012 40.5095 87.2785 40.347 87.038C40.206 87.2706 40.0667 87.4357 39.9292 87.5334C39.8245 87.6657 39.7194 87.8148 39.6139 87.9808C39.5801 87.98 39.5127 87.9782 39.4115 87.9756C39.3432 88.0076 39.2926 88.0063 39.2598 87.9717C39.0324 87.6283 38.7506 87.4354 38.4142 87.3929C38.1116 87.3513 37.8072 87.3772 37.501 87.4705C37.0574 87.6615 36.6514 87.7016 36.283 87.5908C35.9138 87.5138 35.529 87.3857 35.1287 87.2066C35.0744 86.699 35.1048 86.1767 35.2199 85.6397C35.3351 85.1027 35.4334 84.5653 35.5148 84.0275C35.5165 83.9601 35.5187 83.8757 35.5213 83.7746C35.5577 83.6743 35.5594 83.6068 35.5266 83.5722C35.2094 82.7878 35.0778 82.0082 35.1316 81.2335C35.2191 80.4595 35.3568 79.7038 35.5446 78.9662C35.6208 78.6307 35.697 78.2953 35.7732 77.9598C35.8831 77.6251 35.977 77.2564 36.055 76.8534C35.7558 76.6769 35.5937 76.4196 35.5688 76.0815C35.5784 75.7105 35.6044 75.3569 35.6469 75.0205C35.769 74.2137 35.8574 73.4061 35.9121 72.5976C35.9677 71.7554 36.0224 70.9469 36.0762 70.1721C36.1422 68.9252 36.2078 67.6951 36.273 66.4819C36.3382 65.2687 36.4029 64.0724 36.4672 62.8929C36.5906 60.7363 36.7139 58.5797 36.8373 56.4231C36.9615 54.2327 37.0685 52.0588 37.1581 49.9014C37.2509 48.9251 37.3099 47.948 37.3353 46.97C37.3615 45.9582 37.4037 44.9807 37.4618 44.0373C37.4671 43.8349 37.4883 43.6667 37.5255 43.5327C37.5636 43.365 37.6026 43.1635 37.6424 42.9283C37.8785 42.9344 38.1146 42.9405 38.3506 42.9466C38.5876 42.919 38.8072 42.9079 39.0096 42.9131L47.0528 43.1214C47.2214 43.1258 47.4074 43.1138 47.6106 43.0853C47.8475 43.0577 48.0676 43.0296 48.2708 43.0011C49.0127 43.0204 49.3244 43.3659 49.2057 44.0378C49.0516 44.7762 48.9823 45.5 48.9976 46.209C49.0476 46.8853 49.0293 47.5935 48.9426 48.3337C48.8594 48.939 48.7927 49.5615 48.7424 50.2014C48.6929 50.8076 48.6266 51.4133 48.5434 52.0186C48.5303 52.5245 48.5341 53.0308 48.5547 53.5375C48.6099 54.0114 48.631 54.5013 48.6179 55.0071C48.6118 55.2432 48.5719 55.4784 48.4984 55.7127C48.4585 55.9479 48.4182 56.2 48.3775 56.4689C48.3412 56.5692 48.2875 56.6859 48.2166 56.8191C48.1803 56.9194 48.1776 57.0205 48.2087 57.1226C48.4317 57.6346 48.4692 58.1417 48.3212 58.6441C48.2078 59.1136 48.0269 59.5814 47.7786 60.0474C48.2101 60.3286 48.4205 60.6715 48.41 61.0762C48.3996 61.4809 48.3545 61.9184 48.2748 62.3888ZM55.6229 52.3032C55.531 53.2458 55.4391 54.1883 55.3472 55.1308C55.289 56.0742 55.2144 57.0003 55.1233 57.9092C55.1225 57.9429 55.1047 57.9762 55.0701 58.009C55.0701 58.009 55.0693 58.0427 55.0675 58.1102C54.0913 58.0174 53.0964 57.9916 52.0829 58.0329C51.1032 58.075 50.0763 57.9809 49.0024 57.7506C49.0615 56.7735 49.1205 55.7963 49.1796 54.8192C49.2386 53.8421 49.2977 52.8649 49.3567 51.8878C49.4373 51.3837 49.4837 50.8956 49.4959 50.4234C49.509 49.9176 49.539 49.4121 49.5858 48.9072C49.6751 48.0658 49.7808 47.2417 49.903 46.435C50.0251 45.6282 50.1139 44.8037 50.1695 43.9615C50.1826 43.4556 50.4084 43.2084 50.8468 43.2197C51.7565 43.277 52.6489 43.3508 53.5239 43.4409C54.4336 43.4982 55.377 43.5564 56.3541 43.6155C56.2968 44.5252 56.2404 45.4011 56.1848 46.2434C56.1293 47.0856 56.0741 47.911 56.0195 48.7195C55.9691 49.3594 55.9024 49.9819 55.8192 50.5872C55.7706 51.1597 55.7052 51.7317 55.6229 52.3032ZM52.4155 60.8256C53.0554 60.8759 53.4735 61.0217 53.6697 61.2631C53.9005 61.4715 53.9735 61.9121 53.8886 62.5849C53.8383 63.2247 53.7884 63.8478 53.7389 64.4539C53.6895 65.0601 53.6396 65.6831 53.5893 66.323C53.57 67.0649 53.6005 67.8419 53.6807 68.6539C53.6987 69.2618 53.6208 69.6648 53.4469 69.8627C53.2731 70.0607 52.8822 70.1687 52.2743 70.1867C52.0711 70.2152 51.902 70.2277 51.7671 70.2242C51.6331 70.187 51.4818 70.1662 51.3131 70.1618C50.5703 70.1763 50.0645 70.1632 49.7956 70.1225C49.5275 70.0481 49.3801 69.8755 49.3534 69.6048C49.3612 69.3013 49.373 68.846 49.3888 68.239L49.5395 62.4216C49.5907 61.748 49.72 61.3126 49.9276 61.1155C50.1352 60.9184 50.5594 60.8281 51.2002 60.8447C51.4034 60.8163 51.6062 60.8046 51.8085 60.8099C52.0446 60.816 52.2469 60.8212 52.4155 60.8256ZM48.6819 87.7095C47.8388 87.6877 47.4286 87.2384 47.4513 86.3615L47.6073 80.3417C47.6186 79.9033 47.5803 79.4299 47.4922 78.9214C47.4939 78.8539 47.4788 78.7861 47.4469 78.7177C47.4495 78.6166 47.4512 78.5491 47.4521 78.5154C47.7437 77.6793 47.849 76.8721 47.7679 76.0938C47.6877 75.2818 47.675 74.4715 47.7297 73.663C47.8137 73.024 47.9245 72.6557 48.062 72.558C48.2004 72.4266 48.59 72.3692 49.2307 72.3858L54.3905 72.5194C54.3827 72.823 54.3757 73.0928 54.3696 73.3288C54.3981 73.532 54.4092 73.7517 54.4031 73.9878C54.3778 74.9658 54.3187 75.9429 54.2259 76.9191C54.1669 77.8963 54.1247 78.8738 54.0994 79.8518C54.081 80.5601 54.1133 81.2696 54.1961 81.9804C54.3135 82.6584 54.3795 83.3688 54.394 84.1116C54.4163 84.5509 54.421 85.0235 54.4079 85.5293C54.3948 86.0352 54.3817 86.541 54.3686 87.0469C54.3537 87.6202 54.0596 87.8994 53.4863 87.8846C52.6778 87.8299 51.8689 87.7921 51.0595 87.7711C50.2492 87.7839 49.4567 87.7633 48.6819 87.7095Z" fill="#F3F2ED"/>
<path d="M56.1299 28.9491C56.4558 30.4667 56.7528 32.0085 57.0209 33.5745C57.3218 35.1327 57.6227 36.691 57.9236 38.2492C57.9921 38.6837 58.0482 39.1385 58.0917 39.6136C58.1603 40.048 58.2452 40.4786 58.3466 40.9053C58.888 42.8918 59.3395 44.865 59.7012 46.8249C60.055 48.752 60.4784 50.6799 60.9714 52.6085C61.129 53.1259 61.0999 53.5142 60.8841 53.7735C60.7089 54.0579 60.3424 54.2663 59.7844 54.3989C59.128 54.5549 58.652 54.668 58.3566 54.7382C58.0613 54.8084 57.8073 54.834 57.5948 54.8152C57.3822 54.7963 57.0924 54.7438 56.7252 54.6577C56.6173 54.7874 56.4969 54.9373 56.3639 55.1076C56.2388 55.3107 56.0762 55.5748 55.876 55.8997C55.6979 55.734 55.5159 55.5518 55.3301 55.3533C55.1848 55.1797 55.0028 54.9976 54.7841 54.8068C54.7074 55.0678 54.6151 55.2631 54.5072 55.3928C54.44 55.5474 54.3766 55.7185 54.3171 55.906C54.2843 55.9138 54.2187 55.9294 54.1202 55.9528C54.0624 56.0012 54.0131 56.0129 53.9725 55.9879C53.6648 55.7143 53.3429 55.6001 53.0069 55.6452C52.7037 55.6826 52.4161 55.7856 52.1441 55.9543C51.7642 56.2526 51.382 56.3954 50.9976 56.3827C50.621 56.4028 50.2162 56.3777 49.7834 56.3071C49.6007 55.8304 49.4963 55.3178 49.4699 54.7692C49.4436 54.2207 49.4009 53.676 49.3418 53.1353C49.3262 53.0696 49.3067 52.9876 49.2833 52.8891C49.2927 52.7829 49.2771 52.7172 49.2365 52.6922C48.7289 52.0153 48.4018 51.2955 48.2553 50.5328C48.1416 49.7623 48.081 48.9965 48.0735 48.2354C48.0612 47.8916 48.0488 47.5478 48.0365 47.204C48.057 46.8524 48.0532 46.4718 48.0253 46.0624C47.6909 45.9684 47.4683 45.7613 47.3575 45.4409C47.2717 45.0798 47.2062 44.7313 47.1611 44.3953C47.0724 43.5842 46.9508 42.7808 46.7965 41.9853C46.6343 41.157 46.48 40.3614 46.3334 39.5987C46.0777 38.3765 45.8259 37.1707 45.578 35.9814C45.33 34.792 45.086 33.619 44.8459 32.4625C44.4124 30.3463 43.9789 28.2301 43.5454 26.1139C43.1042 23.9649 42.6504 21.8362 42.1841 19.7278C42.0236 18.7603 41.8302 17.8007 41.6041 16.8489C41.3701 15.8642 41.1604 14.9085 40.9748 13.9817C40.928 13.7848 40.9054 13.6168 40.9071 13.4777C40.9009 13.3058 40.8869 13.101 40.8652 12.8635C41.0949 12.8089 41.3247 12.7543 41.5544 12.6997C41.7764 12.6123 41.9858 12.5452 42.1827 12.4984L50.0107 10.6384C50.1748 10.5994 50.3515 10.5401 50.5406 10.4605C50.7626 10.3731 50.9681 10.2896 51.1572 10.21C51.8793 10.0384 52.2691 10.2925 52.3266 10.9724C52.3669 11.7256 52.4853 12.443 52.6819 13.1245C52.9035 13.7653 53.0673 14.4545 53.1732 15.1922C53.248 15.7986 53.343 16.4175 53.4584 17.0489C53.5659 17.6475 53.6571 18.25 53.7318 18.8564C53.8488 19.3487 53.9822 19.8372 54.132 20.3217C54.3068 20.7656 54.4527 21.2337 54.5697 21.726C54.6243 21.9558 54.646 22.1933 54.635 22.4387C54.6568 22.6762 54.6824 22.9302 54.712 23.2006C54.7026 23.3068 54.6806 23.4334 54.6462 23.5803C54.6368 23.6866 54.6602 23.785 54.7164 23.8757C55.0631 24.3134 55.2293 24.7941 55.215 25.3176C55.2257 25.8005 55.1708 26.299 55.0502 26.8131C55.5393 26.9743 55.8306 27.2518 55.9242 27.6456C56.0178 28.0395 56.0864 28.474 56.1299 28.9491ZM60.6478 17.3171C60.8005 18.2517 60.9532 19.1864 61.1059 20.121C61.2915 21.0478 61.4567 21.9621 61.6016 22.8638C61.6094 22.8967 61.6008 22.9334 61.5758 22.974C61.5758 22.974 61.5836 23.0068 61.5992 23.0725C60.6318 23.233 59.6635 23.4631 58.6945 23.7627C57.7582 24.0545 56.7416 24.2267 55.6445 24.2793C55.4511 23.3197 55.2578 22.36 55.0645 21.4004C54.8711 20.4408 54.6778 19.4812 54.4844 18.5215C54.4331 18.0136 54.3528 17.5299 54.2437 17.0704C54.1267 16.5781 54.0261 16.0818 53.9419 15.5817C53.8126 14.7456 53.7036 13.9219 53.6149 13.1108C53.5262 12.2997 53.4008 11.48 53.2386 10.6516C53.1217 10.1593 53.2765 9.86244 53.7032 9.76106C54.5972 9.58332 55.4786 9.42589 56.3476 9.28877C57.2416 9.11102 58.1684 8.92548 59.128 8.73214C59.3058 9.62613 59.4757 10.4873 59.6379 11.3156C59.8 12.144 59.9583 12.9559 60.1126 13.7514C60.228 14.3828 60.323 15.0017 60.3977 15.6081C60.4975 16.1739 60.5808 16.7436 60.6478 17.3171ZM59.7317 26.3769C60.3631 26.2615 60.8046 26.2953 61.0561 26.4783C61.3327 26.6206 61.5161 27.0278 61.6064 27.6998C61.7218 28.3313 61.8332 28.9463 61.9408 29.5448C62.0483 30.1434 62.1598 30.7584 62.2751 31.3899C62.4467 32.1119 62.6753 32.8551 62.9609 33.6195C63.1341 34.2025 63.1621 34.6119 63.0448 34.8478C62.9275 35.0838 62.5773 35.2883 61.9943 35.4615C61.8052 35.5411 61.645 35.5965 61.5137 35.6277C61.3746 35.6261 61.223 35.6448 61.0589 35.6838C60.3446 35.8882 59.8523 36.0052 59.5819 36.0347C59.3037 36.0315 59.117 35.9025 59.0218 35.6477C58.9516 35.3523 58.8464 34.9092 58.706 34.3184L57.3607 28.6566C57.2376 27.9924 57.2511 27.5384 57.4012 27.2947C57.5513 27.051 57.9382 26.855 58.5618 26.7069C58.751 26.6272 58.944 26.564 59.1409 26.5172C59.3707 26.4627 59.5676 26.4159 59.7317 26.3769ZM63.0128 53.3198C62.1923 53.5147 61.6806 53.1855 61.4778 52.3322L60.0858 46.4735C59.9844 46.0468 59.826 45.599 59.6105 45.1301C59.5949 45.0644 59.5629 45.0027 59.5145 44.9448C59.4911 44.8464 59.4755 44.7807 59.4677 44.7479C59.5353 43.865 59.4302 43.0577 59.1524 42.3262C58.8667 41.5619 58.6467 40.782 58.4924 39.9865C58.4099 39.3473 58.4225 38.9628 58.5304 38.8332C58.6305 38.6707 58.9924 38.5153 59.616 38.3672L64.6377 37.174C64.7079 37.4694 64.7703 37.7319 64.8249 37.9617C64.9045 38.1508 64.9716 38.3603 65.0262 38.59C65.2524 39.5419 65.4457 40.5015 65.6062 41.4689C65.7996 42.4285 66.0093 43.3843 66.2355 44.3361C66.3992 45.0254 66.6122 45.7029 66.8745 46.3688C67.1617 46.994 67.4076 47.6638 67.612 48.3781C67.7462 48.7969 67.8718 49.2526 67.9887 49.7449C68.1057 50.2372 68.2227 50.7295 68.3397 51.2219C68.4723 51.7798 68.2596 52.1251 67.7016 52.2577C66.9061 52.412 66.1145 52.5828 65.3267 52.77C64.5468 52.9899 63.7755 53.1732 63.0128 53.3198Z" fill="#F3F2ED"/>
<path d="M76.1551 67.7349C75.1214 67.5761 74.1352 67.4416 73.1965 67.3314C72.2577 67.2213 71.3228 66.9752 70.3917 66.5932L69.7383 70.8446C70.1948 70.5393 70.6257 70.4007 71.0309 70.4288C71.4747 70.4288 71.9248 70.498 72.3814 70.6364C72.8379 70.7748 73.3048 70.8466 73.7818 70.8516C73.5896 71.8802 73.4885 72.8715 73.4784 73.8256C73.5067 74.7515 73.3132 75.6775 72.8979 76.6035C72.7158 77.1216 72.5979 77.6666 72.5442 78.2386C72.4904 78.8106 72.3866 79.3749 72.2328 79.9315C72.1175 80.4599 71.9995 80.7831 71.879 80.9011C71.7636 80.9857 71.4391 80.9871 70.9056 80.9051L68.1047 80.4746C67.7973 82.919 67.4284 85.3198 66.9979 87.6769C66.6058 90.0059 66.3305 92.3528 66.1718 94.7176L54.8182 92.9728L61.3057 50.7591C61.516 50.7232 62.1572 50.7706 63.2294 50.9012C64.3015 51.0318 65.5878 51.2124 67.0883 51.443C68.5888 51.6736 70.1226 51.9094 71.6898 52.1502C73.2569 52.3911 74.6548 52.623 75.8834 52.8459C77.1172 53.0355 77.9456 53.197 78.3689 53.3303L76.1551 67.7349Z" fill="#F3F2ED"/>
<path d="M74.7154 45.0429C74.2768 44.267 73.9226 43.4911 73.6527 42.7152C73.4166 41.9055 73.3491 41.0621 73.4503 40.185C73.5515 39.544 73.5515 38.9537 73.4503 38.4139C73.3154 36.9295 73.5515 35.6307 74.1588 34.5174C74.7998 33.3704 75.5588 32.3078 76.4359 31.3294C77.313 30.3511 78.3251 29.592 79.4721 29.0523C80.6191 28.4788 81.783 27.9559 82.9638 27.4836C83.3686 27.3486 83.8071 27.3149 84.2794 27.3824C84.7855 27.4498 85.2578 27.4836 85.6963 27.4836C85.6289 29.4065 85.5277 31.2788 85.3927 33.1005C85.2915 34.9223 85.2578 36.7609 85.2915 38.6163C85.3252 40.3706 85.3421 42.1585 85.3421 43.9803C85.3758 45.7682 85.4771 47.5562 85.6457 49.3442C85.9156 49.4454 86.1855 49.496 86.4554 49.496C88.7494 49.7322 90.6723 50.4575 92.2242 51.672C93.776 52.8527 94.9905 54.4889 95.8676 56.5805C96.1375 57.1203 96.3399 57.6938 96.4748 58.301C96.6098 58.8745 96.6435 59.4818 96.5761 60.1227C96.5761 60.5613 96.5592 60.9999 96.5254 61.4384C96.5254 61.8432 96.5423 62.2312 96.5761 62.6023C96.8122 64.0867 96.5761 65.3686 95.8676 66.4481C95.1929 67.5277 94.417 68.5397 93.5399 69.4843C92.6627 70.4627 91.6169 71.2217 90.4024 71.7615C89.2217 72.3013 87.9397 72.6049 86.5566 72.6724C86.3204 72.6724 86.1012 72.6555 85.8987 72.6217C85.6963 72.6217 85.5108 72.6555 85.3421 72.723C84.8361 72.9591 84.3638 72.8916 83.9252 72.5205C83.7903 72.3856 83.6047 72.3013 83.3686 72.2675C83.1662 72.2675 82.9806 72.2338 82.8119 72.1663C80.7878 71.6603 79.2697 70.547 78.2576 68.8265C77.954 68.2193 77.7853 67.4939 77.7516 66.6506C77.7179 65.8072 77.8022 64.9806 78.0046 64.171C78.2408 63.3613 78.5613 62.7035 78.9661 62.1975C79.4047 61.6914 79.8432 61.2023 80.2818 60.73C80.7203 60.2577 81.277 59.9372 81.9517 59.7685C82.3228 59.6673 82.677 59.583 83.0144 59.5155C83.3855 59.448 83.7565 59.3974 84.1276 59.3637C84.2963 60.0721 84.3638 60.7468 84.33 61.3878C84.2963 62.0288 84.2963 62.6698 84.33 63.3107C84.3975 63.5469 84.4481 63.7662 84.4819 63.9686C84.5156 64.171 84.5493 64.3734 84.5831 64.5758C84.5831 63.4288 84.5831 62.2818 84.5831 61.1348C84.5831 59.954 84.5493 58.7902 84.4819 57.6432C84.4819 56.5636 84.4481 55.501 84.3806 54.4552C84.3469 53.3756 84.3132 52.2623 84.2794 51.1153C83.9084 51.0141 83.5373 50.9298 83.1662 50.8623C82.8288 50.7611 82.4915 50.6599 82.1541 50.5587C80.6023 50.0864 79.1685 49.4117 77.8528 48.5346C76.5709 47.6574 75.5251 46.4936 74.7154 45.0429ZM86.2024 27.4836C87.5181 27.5848 88.5976 27.939 89.441 28.5462C90.6217 29.3222 91.5832 30.2499 92.3254 31.3294C93.1013 32.3752 93.4386 33.6403 93.3374 35.1247C93.1688 37.9247 91.8025 39.9151 89.2386 41.0959C88.6988 41.2983 88.1422 41.4838 87.5687 41.6525C86.9952 41.7874 86.371 41.6694 85.6963 41.2983C85.6963 39.038 85.7132 36.7609 85.7469 34.4668C85.7807 32.1728 85.9325 29.8451 86.2024 27.4836ZM84.6337 67.9662H84.9373C84.9036 67.5277 84.8529 67.106 84.7855 66.7012C84.7517 66.2963 84.7011 65.8915 84.6337 65.4867V67.9662Z" fill="#F3F2ED"/>
</g>
<defs>
<filter id="filter0_di_479_4942" x="0.289474" y="0.827486" width="106.421" height="106.421" filterUnits="userSpaceOnUse" color-interpolation-filters="sRGB">
<feFlood flood-opacity="0" result="BackgroundImageFix"/>
<feColorMatrix in="SourceAlpha" type="matrix" values="0 0 0 0 0 0 0 0 0 0 0 0 0 0 0 0 0 0 127 0" result="hardAlpha"/>
<feOffset dy="2.53801"/>
<feGaussianBlur stdDeviation="2.85526"/>
<feComposite in2="hardAlpha" operator="out"/>
<feColorMatrix type="matrix" values="0 0 0 0 0.952941 0 0 0 0 0.94902 0 0 0 0 0.929412 0 0 0 0.33 0"/>
<feBlend mode="normal" in2="BackgroundImageFix" result="effect1_dropShadow_479_4942"/>
<feBlend mode="normal" in="SourceGraphic" in2="effect1_dropShadow_479_4942" result="shape"/>
<feColorMatrix in="SourceAlpha" type="matrix" values="0 0 0 0 0 0 0 0 0 0 0 0 0 0 0 0 0 0 127 0" result="hardAlpha"/>
<feOffset dx="1.26901" dy="2.53801"/>
<feGaussianBlur stdDeviation="1.26901"/>
<feComposite in2="hardAlpha" operator="arithmetic" k2="-1" k3="1"/>
<feColorMatrix type="matrix" values="0 0 0 0 0 0 0 0 0 0 0 0 0 0 0 0 0 0 0.25 0"/>
<feBlend mode="normal" in2="shape" result="effect2_innerShadow_479_4942"/>
</filter>
</defs>
</svg>
