<svg width="1172" height="547" viewBox="0 0 1172 547" fill="none" xmlns="http://www.w3.org/2000/svg">
<g filter="url(#filter0_d_479_4933)">
<path d="M442.905 299.406C442.637 311.755 442.1 324.238 441.295 336.856C440.758 349.473 440.221 362.091 439.684 374.708C439.416 378.198 439.013 381.822 438.476 385.581C438.207 389.071 438.073 392.56 438.073 396.05C438.61 412.426 438.476 428.534 437.671 444.373C436.865 459.943 436.597 475.648 436.865 491.487C437.134 495.782 436.194 498.736 434.046 500.346C432.167 502.225 428.946 503.165 424.382 503.165C419.013 503.165 415.12 503.165 412.704 503.165C410.288 503.165 408.274 502.897 406.664 502.36C405.053 501.823 402.905 500.883 400.221 499.541C399.147 500.346 397.939 501.286 396.597 502.36C395.254 503.702 393.509 505.447 391.362 507.595C390.288 505.984 389.214 504.239 388.14 502.36C387.335 500.749 386.261 499.004 384.919 497.125C383.845 499.004 382.771 500.346 381.697 501.152C380.892 502.225 380.086 503.433 379.281 504.776C379.013 504.776 378.476 504.776 377.67 504.776C377.133 505.044 376.731 505.044 376.462 504.776C374.583 502.091 372.301 500.615 369.617 500.346C367.2 500.078 364.784 500.346 362.368 501.152C358.878 502.762 355.657 503.165 352.704 502.36C349.751 501.823 346.663 500.883 343.442 499.541C342.905 495.514 343.039 491.353 343.845 487.058C344.65 482.762 345.321 478.467 345.858 474.172C345.858 473.635 345.858 472.964 345.858 472.158C346.127 471.353 346.127 470.816 345.858 470.547C343.173 464.373 341.965 458.198 342.234 452.024C342.771 445.849 343.71 439.809 345.053 433.903C345.59 431.218 346.127 428.534 346.663 425.849C347.469 423.165 348.14 420.212 348.677 416.99C346.261 415.648 344.918 413.634 344.65 410.95C344.65 407.997 344.784 405.178 345.053 402.493C345.858 396.05 346.395 389.607 346.663 383.164C346.932 376.453 347.2 370.01 347.469 363.836C347.737 353.903 348.006 344.104 348.274 334.439C348.543 324.775 348.811 315.245 349.08 305.849C349.616 288.667 350.153 271.486 350.69 254.305C351.227 236.855 351.63 219.54 351.898 202.358C352.435 194.573 352.704 186.788 352.704 179.002C352.704 170.949 352.838 163.163 353.106 155.647C353.106 154.036 353.241 152.694 353.509 151.62C353.778 150.277 354.046 148.667 354.314 146.788C356.194 146.788 358.073 146.788 359.952 146.788C361.831 146.519 363.576 146.385 365.187 146.385H429.214C430.556 146.385 432.033 146.251 433.644 145.982C435.523 145.714 437.268 145.445 438.879 145.177C444.785 145.177 447.335 147.861 446.53 153.23C445.456 159.137 445.053 164.908 445.322 170.546C445.859 175.915 445.859 181.553 445.322 187.459C444.785 192.291 444.382 197.258 444.114 202.358C443.845 207.19 443.442 212.023 442.905 216.855C442.905 220.882 443.04 224.909 443.308 228.936C443.845 232.694 444.114 236.587 444.114 240.613C444.114 242.493 443.845 244.372 443.308 246.251C443.04 248.13 442.771 250.144 442.503 252.291C442.234 253.097 441.832 254.036 441.295 255.11C441.026 255.916 441.026 256.721 441.295 257.526C443.174 261.553 443.577 265.58 442.503 269.607C441.697 273.365 440.355 277.124 438.476 280.882C441.966 283.03 443.711 285.714 443.711 288.936C443.711 292.157 443.442 295.647 442.905 299.406ZM499.282 217.66C498.745 225.177 498.208 232.694 497.671 240.211C497.402 247.728 497 255.11 496.463 262.359C496.463 262.627 496.329 262.895 496.06 263.164C496.06 263.164 496.06 263.432 496.06 263.969C488.275 263.432 480.355 263.432 472.302 263.969C464.516 264.506 456.328 263.969 447.738 262.359C448.006 254.573 448.275 246.788 448.543 239.003C448.812 231.217 449.08 223.432 449.348 215.647C449.885 211.62 450.154 207.727 450.154 203.969C450.154 199.942 450.288 195.915 450.557 191.888C451.093 185.177 451.765 178.6 452.57 172.157C453.375 165.714 453.912 159.137 454.181 152.425C454.181 148.398 455.926 146.385 459.416 146.385C466.664 146.653 473.778 147.056 480.758 147.593C488.006 147.861 495.523 148.13 503.308 148.398C503.04 155.647 502.772 162.627 502.503 169.338C502.235 176.049 501.966 182.627 501.698 189.07C501.429 194.17 501.027 199.137 500.49 203.969C500.221 208.533 499.819 213.097 499.282 217.66ZM475.523 286.117C480.624 286.385 483.98 287.459 485.59 289.339C487.469 290.949 488.141 294.439 487.604 299.808C487.335 304.909 487.067 309.876 486.798 314.708C486.53 319.54 486.261 324.506 485.993 329.607C485.993 335.513 486.396 341.688 487.201 348.131C487.469 352.963 486.933 356.184 485.59 357.795C484.248 359.406 481.161 360.346 476.328 360.614C474.718 360.882 473.375 361.017 472.302 361.017C471.228 360.748 470.02 360.614 468.677 360.614C462.771 360.882 458.744 360.882 456.597 360.614C454.449 360.077 453.241 358.735 452.973 356.587C452.973 354.171 452.973 350.547 452.973 345.715V299.406C453.241 294.037 454.181 290.547 455.791 288.936C457.402 287.325 460.758 286.52 465.859 286.52C467.469 286.251 469.08 286.117 470.691 286.117C472.57 286.117 474.181 286.117 475.523 286.117ZM451.362 500.749C444.65 500.749 441.295 497.259 441.295 490.279V442.359C441.295 438.869 440.892 435.111 440.087 431.084C440.087 430.547 439.952 430.01 439.684 429.473C439.684 428.668 439.684 428.131 439.684 427.863C441.832 421.151 442.503 414.708 441.697 408.534C440.892 402.091 440.624 395.648 440.892 389.205C441.429 384.104 442.234 381.151 443.308 380.346C444.382 379.272 447.469 378.735 452.57 378.735H493.644C493.644 381.151 493.644 383.299 493.644 385.178C493.912 386.789 494.047 388.534 494.047 390.413C494.047 398.198 493.778 405.983 493.241 413.769C492.973 421.554 492.839 429.339 492.839 437.124C492.839 442.762 493.241 448.4 494.047 454.037C495.12 459.406 495.792 465.044 496.06 470.95C496.329 474.44 496.463 478.198 496.463 482.225C496.463 486.252 496.463 490.279 496.463 494.306C496.463 498.87 494.181 501.152 489.617 501.152C483.174 500.883 476.731 500.749 470.288 500.749C463.845 501.017 457.536 501.017 451.362 500.749Z" fill="white"/>
</g>
<g filter="url(#filter1_d_479_4933)">
<path d="M650.983 182.954C649.419 195.206 647.574 207.564 645.448 220.027C643.588 232.519 641.729 245.01 639.87 257.501C639.236 260.944 638.455 264.506 637.527 268.187C636.893 271.629 636.393 275.086 636.026 278.556C634.84 294.898 633.015 310.902 630.55 326.569C628.114 341.969 626.197 357.559 624.801 373.338C624.616 377.638 623.372 380.476 621.067 381.852C619.001 383.524 615.698 384.12 611.16 383.64C605.82 383.076 601.949 382.668 599.546 382.414C597.144 382.16 595.17 381.682 593.624 380.978C592.079 380.275 590.042 379.115 587.513 377.498C586.36 378.187 585.06 378.994 583.613 379.921C582.137 381.115 580.218 382.667 577.857 384.577C576.958 382.863 576.074 381.014 575.203 379.033C574.571 377.346 573.687 375.498 572.549 373.488C571.284 375.244 570.075 376.467 568.923 377.155C568.009 378.138 567.081 379.255 566.139 380.505C565.872 380.477 565.338 380.42 564.537 380.336C563.975 380.546 563.575 380.504 563.336 380.209C561.749 377.342 559.635 375.634 556.993 375.085C554.619 374.564 552.188 374.577 549.701 375.124C546.061 376.36 542.815 376.422 539.963 375.311C537.082 374.467 534.111 373.208 531.048 371.535C530.937 367.474 531.508 363.35 532.76 359.163C534.012 354.976 535.131 350.775 536.116 346.559C536.172 346.026 536.243 345.358 536.327 344.557C536.679 343.785 536.735 343.251 536.496 342.955C534.475 336.533 533.922 330.266 534.838 324.154C536.02 318.07 537.589 312.161 539.544 306.429C540.36 303.816 541.176 301.202 541.992 298.589C543.075 296.004 544.053 293.138 544.925 289.99C542.663 288.402 541.54 286.258 541.555 283.561C541.865 280.624 542.295 277.835 542.844 275.193C544.321 268.87 545.532 262.519 546.476 256.14C547.448 249.494 548.391 243.115 549.307 237.003C550.617 227.153 551.913 217.437 553.195 207.854C554.478 198.271 555.746 188.822 556.999 179.506C559.338 162.476 561.677 145.446 564.015 128.416C566.382 111.12 568.601 93.9422 570.673 76.8842C572.025 69.1983 573.109 61.4843 573.927 53.7421C574.773 45.7329 575.724 38.0048 576.781 30.5578C576.95 28.956 577.224 27.6352 577.604 26.5955C578.012 25.2888 578.448 23.7152 578.913 21.8746C580.782 22.072 582.65 22.2694 584.519 22.4667C586.416 22.3971 588.166 22.447 589.767 22.6161L653.44 29.3414C654.775 29.4823 656.258 29.504 657.888 29.4062C659.785 29.3366 661.548 29.2529 663.178 29.1551C669.052 29.7755 671.306 32.7131 669.941 37.9679C668.253 43.7285 667.246 49.4261 666.921 55.0608C666.891 60.4566 666.299 66.0631 665.144 71.8801C664.103 76.6292 663.181 81.5259 662.378 86.5702C661.604 91.3474 660.696 96.1107 659.654 100.86C659.231 104.864 658.942 108.883 658.786 112.916C658.925 116.71 658.783 120.609 658.36 124.614C658.162 126.483 657.698 128.323 656.967 130.136C656.502 131.976 656.024 133.95 655.531 136.058C655.18 136.831 654.681 137.723 654.034 138.734C653.682 139.507 653.598 140.308 653.78 141.137C655.226 145.339 655.204 149.386 653.713 153.278C652.517 156.931 650.787 160.527 648.524 164.067C651.769 166.57 653.222 169.423 652.884 172.627C652.545 175.83 651.912 179.273 650.983 182.954ZM715.634 107.582C714.31 115.001 712.987 122.42 711.663 129.839C710.607 137.286 709.431 144.585 708.136 151.737C708.107 152.004 707.946 152.257 707.65 152.496C707.65 152.496 707.622 152.763 707.566 153.297C699.88 151.945 692.004 151.113 683.939 150.801C676.14 150.517 668.054 149.123 659.68 146.619C660.765 138.905 661.849 131.191 662.934 123.477C664.019 115.763 665.104 108.049 666.188 100.335C667.145 96.3869 667.821 92.544 668.216 88.8064C668.639 84.8018 669.195 80.8114 669.885 76.835C671.124 70.217 672.482 63.7467 673.96 57.4239C675.438 51.1012 676.662 44.6168 677.634 37.9707C678.057 33.9661 680.004 32.1471 683.475 32.5136C690.655 33.542 697.687 34.6897 704.572 35.9568C711.752 36.9851 719.199 38.0416 726.913 39.1263C725.885 46.3064 724.885 53.2194 723.913 59.8656C722.941 66.5117 721.983 73.0243 721.04 79.4035C720.237 84.4477 719.315 89.3444 718.273 94.0935C717.527 98.6039 716.647 103.1 715.634 107.582ZM684.816 173.165C689.86 173.968 693.085 175.388 694.489 177.426C696.189 179.225 696.49 182.766 695.392 188.049C694.589 193.094 693.8 198.004 693.026 202.782C692.251 207.559 691.463 212.47 690.66 217.514C690.04 223.387 689.792 229.57 689.916 236.062C689.675 240.896 688.803 244.043 687.299 245.504C685.795 246.965 682.626 247.575 677.792 247.334C676.162 247.432 674.813 247.425 673.745 247.312C672.706 246.932 671.518 246.672 670.183 246.531C664.282 246.177 660.277 245.754 658.17 245.262C656.09 244.502 655.03 243.04 654.988 240.876C655.242 238.474 655.623 234.87 656.13 230.064L660.995 184.011C661.826 178.7 663.127 175.328 664.898 173.895C666.669 172.463 670.09 172.014 675.163 172.55C676.793 172.452 678.409 172.488 680.011 172.657C681.879 172.855 683.481 173.024 684.816 173.165ZM638.244 384.072C631.57 383.367 628.599 379.543 629.333 372.602L634.366 324.948C634.732 321.477 634.727 317.697 634.349 313.608C634.405 313.074 634.328 312.526 634.118 311.964C634.202 311.163 634.259 310.629 634.287 310.362C637.127 303.913 638.472 297.576 638.319 291.351C638.195 284.859 638.605 278.424 639.549 272.045C640.618 267.029 641.729 264.177 642.882 263.488C644.063 262.533 647.189 262.324 652.262 262.859L693.108 267.174C692.855 269.576 692.629 271.712 692.432 273.581C692.53 275.211 692.48 276.96 692.282 278.829C691.465 286.572 690.38 294.285 689.028 301.971C687.943 309.685 686.992 317.413 686.174 325.156C685.582 330.762 685.391 336.411 685.599 342.102C686.103 347.554 686.179 353.231 685.825 359.133C685.726 362.631 685.464 366.383 685.041 370.388C684.618 374.392 684.195 378.397 683.772 382.401C683.293 386.94 680.784 388.97 676.246 388.49C669.866 387.547 663.473 386.736 657.066 386.06C650.63 385.65 644.356 384.987 638.244 384.072Z" fill="white"/>
</g>
<g filter="url(#filter2_d_479_4933)">
<path d="M215.434 149.536C219.963 153.309 224.159 157.346 228.023 161.648C231.795 165.698 234.491 170.714 236.112 176.696C237.339 180.822 238.691 184.901 240.169 188.934C241.647 192.966 243.252 196.953 244.982 200.894C247.771 206.162 249.551 211.8 250.324 217.807C251.256 223.47 250.869 229.044 249.163 234.53C248.305 239.991 246.679 245.305 244.284 250.472C241.889 255.638 239.448 260.679 236.96 265.594C233.902 271.29 230.141 276.242 225.68 280.451C221.378 284.315 216.651 288.192 211.501 292.082L233.052 284.182C238.849 282.057 242.529 281.566 244.092 282.709C245.814 283.507 247.99 286.712 250.619 292.325C260.237 313.103 268.72 334.297 276.069 355.907C283.419 377.516 291.272 398.941 299.629 420.181L305.312 435.683C302.976 437.111 300.812 438.619 298.821 440.207C296.83 441.794 294.826 442.958 292.809 443.697C287.356 445.982 281.937 447.968 276.551 449.656C271.51 451.504 266.343 453.398 261.05 455.338C257.269 456.724 254.517 457.018 252.795 456.22C251.165 455.673 249.074 453.867 246.52 450.8C242.353 444.893 239.115 438.789 236.805 432.488C234.495 426.186 231.933 419.977 229.12 413.861C225.222 405.568 221.404 397.103 217.666 388.466C214.181 379.736 210.615 371.179 206.97 362.793C204.962 358.097 203.047 353.652 201.224 349.459C199.561 344.922 197.692 340.604 195.617 336.504C193.795 332.311 194.358 328.387 197.307 324.733C194.711 323.111 192.414 321.523 190.414 319.969C188.415 318.414 188.201 315.49 189.772 311.197C190.386 308.971 190.058 306.518 188.79 303.837C187.681 300.813 186.539 298.086 185.363 295.658C182.986 289.953 180.449 284.593 177.753 279.577C175.216 274.216 172.805 268.809 170.521 263.357C165.002 249.082 159.484 234.807 153.965 220.532C148.607 205.913 142.996 191.386 137.133 176.951C136.024 173.926 135.041 170.855 134.185 167.738C133.488 164.277 132.539 160.908 131.338 157.631C130.044 154.102 128.28 150.46 126.046 146.704C123.349 141.688 124.291 137.626 128.87 134.518C131.71 132.905 134.47 131.464 137.15 130.196C139.83 128.928 142.88 128.667 146.3 129.416C147.585 129.802 148.904 129.89 150.257 129.681C151.609 129.471 152.71 129.353 153.559 129.328C153.559 129.328 154.029 129.442 154.97 129.668C156.071 129.551 158.297 130.164 161.649 131.509C181.855 131.251 199.783 137.26 215.434 149.536ZM183.496 318.645C186.175 325.954 189.232 333.125 192.668 340.158C196.011 346.938 198.518 354.168 200.19 361.847C201.584 368.771 203.86 375.37 207.018 381.647C210.336 387.578 212.818 393.96 214.464 400.79C217.034 410.142 219.902 419.527 223.069 428.945C226.235 438.364 229.322 447.954 232.329 457.717C232.698 458.726 232.816 459.826 232.681 461.019C232.639 462.464 232.723 463.863 232.933 465.216L148.62 496.121L29.1559 170.21L115.36 138.612C117.527 142.964 119.694 147.317 121.861 151.669C124.28 155.929 126.322 160.327 127.985 164.864C134.654 180.719 140.189 196.989 144.59 213.675C146.79 222.018 149.747 230.084 153.46 237.873C157.424 245.569 160.885 253.45 163.842 261.516C166.613 269.078 169.133 276.732 171.401 284.478C173.668 292.225 176.016 299.799 178.443 307.201C179.09 308.966 179.783 310.856 180.522 312.872C181.513 314.797 182.504 316.721 183.496 318.645Z" fill="white"/>
</g>
<g filter="url(#filter3_d_479_4933)">
<path d="M890.786 263.515C882.648 265.254 874.931 267.04 867.636 268.873C860.341 270.706 852.691 271.517 844.685 271.305L851.836 304.778C854.369 301.217 857.183 298.969 860.278 298.034C863.578 296.779 867.123 296.022 870.91 295.762C874.698 295.502 878.373 294.717 881.937 293.406C883.413 301.601 885.461 309.262 888.082 316.388C890.909 323.196 892.085 330.631 891.612 338.693C891.721 343.062 892.384 347.45 893.6 351.857C894.816 356.264 895.638 360.755 896.067 365.33C896.702 369.587 896.738 372.325 896.174 373.543C895.555 374.499 893.145 375.425 888.944 376.323L866.892 381.034C871.511 400.087 875.549 418.989 879.006 437.741C882.67 456.175 887.252 474.412 892.754 492.453L803.361 511.55L732.355 179.183C733.818 178.322 738.722 176.862 747.067 174.805C755.412 172.747 765.492 170.457 777.306 167.933C789.12 165.409 801.196 162.829 813.535 160.193C825.874 157.557 836.929 155.332 846.698 153.52C856.412 151.445 863.032 150.305 866.557 150.101L890.786 263.515Z" fill="white"/>
</g>
<g filter="url(#filter4_d_479_4933)">
<path d="M1098.62 362.15C1100.21 369.063 1101.15 375.784 1101.45 382.315C1101.41 389.026 1100.02 395.613 1097.26 402.074C1095.03 406.734 1093.69 411.237 1093.24 415.584C1090.9 427.212 1086.16 436.584 1079 443.699C1071.51 450.995 1063.31 457.381 1054.4 462.855C1045.5 468.329 1036.06 471.824 1026.08 473.341C1016.03 475.115 1005.97 476.465 995.892 477.391C992.498 477.502 989.076 476.765 985.627 475.18C981.92 473.518 978.393 472.19 975.048 471.196C979.922 456.681 984.939 442.628 990.099 429.038C995.001 415.372 999.426 401.424 1003.38 387.194C1007.1 373.736 1011.02 360.059 1015.15 346.163C1018.95 332.448 1022.23 318.58 1025 304.559C1023.17 303.175 1021.22 302.177 1019.16 301.566C1002.2 294.563 989.177 284.671 980.093 271.889C970.933 259.364 965.379 244.13 963.43 226.187C962.595 221.458 962.351 216.624 962.699 211.686C962.97 207.006 964.089 202.297 966.057 197.561C967.051 194.216 968.174 190.908 969.426 187.64C970.343 184.552 971.094 181.554 971.678 178.647C973.242 166.789 977.95 157.546 985.801 150.917C993.396 144.212 1001.61 138.251 1010.44 133.035C1019.35 127.561 1029.05 124.142 1039.54 122.778C1049.77 121.338 1060.23 121.928 1070.94 124.549C1072.74 125.085 1074.37 125.71 1075.84 126.427C1077.38 126.885 1078.88 127.049 1080.32 126.917C1084.71 126.262 1088.16 127.848 1090.66 131.673C1091.39 133.008 1092.61 134.072 1094.34 134.865C1095.88 135.324 1097.22 136.002 1098.35 136.899C1112.65 145.348 1121.7 157.282 1125.52 172.7C1126.46 178.02 1126.1 183.935 1124.45 190.445C1122.79 196.955 1120.28 203.068 1116.9 208.785C1113.26 214.426 1109.32 218.717 1105.09 221.66C1100.6 224.525 1096.14 227.262 1091.72 229.871C1087.31 232.479 1082.34 233.662 1076.81 233.419C1073.75 233.349 1070.85 233.19 1068.13 232.939C1065.14 232.613 1062.2 232.157 1059.29 231.573C1059.61 225.787 1060.63 220.487 1062.34 215.675C1064.05 210.862 1065.5 205.972 1066.7 201.007C1066.72 199.052 1066.83 197.265 1067.03 195.645C1067.23 194.024 1067.43 192.404 1067.63 190.783C1065.03 199.532 1062.43 208.282 1059.83 217.031C1057.16 226.038 1054.77 234.992 1052.69 243.894C1050.24 252.129 1048.09 260.311 1046.23 268.442C1044.04 276.753 1041.78 285.321 1039.43 294.147C1042.03 295.76 1044.67 297.245 1047.35 298.601C1049.7 300.138 1052.04 301.675 1054.38 303.211C1065.15 310.332 1074.56 318.729 1082.6 328.403C1090.39 338 1095.73 349.249 1098.62 362.15ZM971.188 470.048C961.382 466.293 953.95 461.144 948.893 454.6C941.646 446.004 936.415 436.748 933.201 426.831C929.654 417.094 929.949 406.679 934.086 395.586C941.721 374.61 956.655 362.525 978.889 359.331C983.466 359.011 988.132 358.858 992.889 358.871C997.57 359.142 1002.06 361.458 1006.37 365.818C1001.24 383.059 995.952 400.391 990.494 417.813C985.036 435.235 978.601 452.647 971.188 470.048ZM1074.93 164.806L1072.62 164.118C1071.88 167.54 1071.31 170.871 1070.91 174.112C1070.25 177.277 1069.72 180.479 1069.31 183.72L1074.93 164.806Z" fill="white"/>
</g>
<defs>
<filter id="filter0_d_479_4933" x="314.009" y="124.237" width="217.487" height="418.794" filterUnits="userSpaceOnUse" color-interpolation-filters="sRGB">
<feFlood flood-opacity="0" result="BackgroundImageFix"/>
<feColorMatrix in="SourceAlpha" type="matrix" values="0 0 0 0 0 0 0 0 0 0 0 0 0 0 0 0 0 0 127 0" result="hardAlpha"/>
<feOffset dy="7.24836"/>
<feGaussianBlur stdDeviation="14.094"/>
<feComposite in2="hardAlpha" operator="out"/>
<feColorMatrix type="matrix" values="0 0 0 0 1 0 0 0 0 1 0 0 0 0 1 0 0 0 0.36 0"/>
<feBlend mode="normal" in2="BackgroundImageFix" result="effect1_dropShadow_479_4933"/>
<feBlend mode="normal" in="SourceGraphic" in2="effect1_dropShadow_479_4933" result="shape"/>
</filter>
<filter id="filter1_d_479_4933" x="502.847" y="0.934816" width="252.255" height="423.061" filterUnits="userSpaceOnUse" color-interpolation-filters="sRGB">
<feFlood flood-opacity="0" result="BackgroundImageFix"/>
<feColorMatrix in="SourceAlpha" type="matrix" values="0 0 0 0 0 0 0 0 0 0 0 0 0 0 0 0 0 0 127 0" result="hardAlpha"/>
<feOffset dy="7.24836"/>
<feGaussianBlur stdDeviation="14.094"/>
<feComposite in2="hardAlpha" operator="out"/>
<feColorMatrix type="matrix" values="0 0 0 0 1 0 0 0 0 1 0 0 0 0 1 0 0 0 0.36 0"/>
<feBlend mode="normal" in2="BackgroundImageFix" result="effect1_dropShadow_479_4933"/>
<feBlend mode="normal" in="SourceGraphic" in2="effect1_dropShadow_479_4933" result="shape"/>
</filter>
<filter id="filter2_d_479_4933" x="0.96771" y="108.059" width="332.532" height="423.498" filterUnits="userSpaceOnUse" color-interpolation-filters="sRGB">
<feFlood flood-opacity="0" result="BackgroundImageFix"/>
<feColorMatrix in="SourceAlpha" type="matrix" values="0 0 0 0 0 0 0 0 0 0 0 0 0 0 0 0 0 0 127 0" result="hardAlpha"/>
<feOffset dy="7.24836"/>
<feGaussianBlur stdDeviation="14.094"/>
<feComposite in2="hardAlpha" operator="out"/>
<feColorMatrix type="matrix" values="0 0 0 0 1 0 0 0 0 1 0 0 0 0 1 0 0 0 0.36 0"/>
<feBlend mode="normal" in2="BackgroundImageFix" result="effect1_dropShadow_479_4933"/>
<feBlend mode="normal" in="SourceGraphic" in2="effect1_dropShadow_479_4933" result="shape"/>
</filter>
<filter id="filter3_d_479_4933" x="704.167" y="129.161" width="220.592" height="417.826" filterUnits="userSpaceOnUse" color-interpolation-filters="sRGB">
<feFlood flood-opacity="0" result="BackgroundImageFix"/>
<feColorMatrix in="SourceAlpha" type="matrix" values="0 0 0 0 0 0 0 0 0 0 0 0 0 0 0 0 0 0 127 0" result="hardAlpha"/>
<feOffset dy="7.24836"/>
<feGaussianBlur stdDeviation="14.094"/>
<feComposite in2="hardAlpha" operator="out"/>
<feColorMatrix type="matrix" values="0 0 0 0 1 0 0 0 0 1 0 0 0 0 1 0 0 0 0.36 0"/>
<feBlend mode="normal" in2="BackgroundImageFix" result="effect1_dropShadow_479_4933"/>
<feBlend mode="normal" in="SourceGraphic" in2="effect1_dropShadow_479_4933" result="shape"/>
</filter>
<filter id="filter4_d_479_4933" x="902.557" y="101.072" width="251.662" height="411.766" filterUnits="userSpaceOnUse" color-interpolation-filters="sRGB">
<feFlood flood-opacity="0" result="BackgroundImageFix"/>
<feColorMatrix in="SourceAlpha" type="matrix" values="0 0 0 0 0 0 0 0 0 0 0 0 0 0 0 0 0 0 127 0" result="hardAlpha"/>
<feOffset dy="7.24836"/>
<feGaussianBlur stdDeviation="14.094"/>
<feComposite in2="hardAlpha" operator="out"/>
<feColorMatrix type="matrix" values="0 0 0 0 1 0 0 0 0 1 0 0 0 0 1 0 0 0 0.36 0"/>
<feBlend mode="normal" in2="BackgroundImageFix" result="effect1_dropShadow_479_4933"/>
<feBlend mode="normal" in="SourceGraphic" in2="effect1_dropShadow_479_4933" result="shape"/>
</filter>
</defs>
</svg>
