<svg width="42" height="43" viewBox="0 0 42 43" fill="none" xmlns="http://www.w3.org/2000/svg">
<path d="M23.0825 10.5195H11.8825C11.4275 10.5195 10.99 10.537 10.57 10.5895C5.8625 10.992 3.5 13.7745 3.5 18.902V25.902C3.5 32.902 6.3 34.2845 11.8825 34.2845H12.5825C12.9675 34.2845 13.475 34.547 13.7025 34.8445L15.8025 37.6445C16.73 38.887 18.235 38.887 19.1625 37.6445L21.2625 34.8445C21.525 34.4945 21.945 34.2845 22.3825 34.2845H23.0825C28.21 34.2845 30.9925 31.9395 31.395 27.2145C31.4475 26.7945 31.465 26.357 31.465 25.902V18.902C31.465 13.3195 28.665 10.5195 23.0825 10.5195ZM11.375 24.5195C10.395 24.5195 9.625 23.732 9.625 22.7695C9.625 21.807 10.4125 21.0195 11.375 21.0195C12.3375 21.0195 13.125 21.807 13.125 22.7695C13.125 23.732 12.3375 24.5195 11.375 24.5195ZM17.4825 24.5195C16.5025 24.5195 15.7325 23.732 15.7325 22.7695C15.7325 21.807 16.52 21.0195 17.4825 21.0195C18.445 21.0195 19.2325 21.807 19.2325 22.7695C19.2325 23.732 18.4625 24.5195 17.4825 24.5195ZM23.6075 24.5195C22.6275 24.5195 21.8575 23.732 21.8575 22.7695C21.8575 21.807 22.645 21.0195 23.6075 21.0195C24.57 21.0195 25.3575 21.807 25.3575 22.7695C25.3575 23.732 24.57 24.5195 23.6075 24.5195Z" fill="#0500FF"/>
<path d="M38.4664 11.902V18.902C38.4664 22.402 37.3814 24.782 35.2114 26.0945C34.6864 26.4095 34.0739 25.9895 34.0739 25.377L34.0914 18.902C34.0914 11.902 30.0839 7.89453 23.0839 7.89453L12.4264 7.91203C11.8139 7.91203 11.3939 7.29953 11.7089 6.77453C13.0214 4.60453 15.4014 3.51953 18.8839 3.51953H30.0839C35.6664 3.51953 38.4664 6.31953 38.4664 11.902Z" fill="#0500FF"/>
</svg>
