<svg width="46" height="45" viewBox="0 0 46 45" fill="none" xmlns="http://www.w3.org/2000/svg">
<path d="M30.7641 5.54825L13.8328 11.1732C2.45156 14.9795 2.45156 21.1857 13.8328 24.9732L18.8578 26.642L20.5266 31.667C24.3141 43.0482 30.5391 43.0482 34.3266 31.667L39.9703 14.7545C42.4828 7.16075 38.3578 3.017 30.7641 5.54825ZM31.3641 15.6357L24.2391 22.7982C23.9578 23.0795 23.6016 23.2107 23.2453 23.2107C22.8891 23.2107 22.5328 23.0795 22.2516 22.7982C21.7078 22.2545 21.7078 21.3545 22.2516 20.8108L29.3766 13.6482C29.9203 13.1045 30.8203 13.1045 31.3641 13.6482C31.9078 14.192 31.9078 15.092 31.3641 15.6357Z" fill="white"/>
</svg>
