<svg width="109" height="109" viewBox="0 0 109 109" fill="none" xmlns="http://www.w3.org/2000/svg">
<g clip-path="url(#clip0_479_4989)">
<path d="M108.043 0.41748L0.043457 0.41748L0.043457 108.417H108.043V0.41748Z" fill="white"/>
<path d="M4.04346 4.41748H8.04346V8.41748H4.04346V4.41748ZM8.04346 4.41748H12.0435V8.41748H8.04346V4.41748ZM12.0435 4.41748H16.0435V8.41748H12.0435V4.41748ZM16.0435 4.41748H20.0435V8.41748H16.0435V4.41748ZM20.0435 4.41748H24.0435V8.41748H20.0435V4.41748ZM24.0435 4.41748H28.0435V8.41748H24.0435V4.41748ZM28.0435 4.41748H32.0435V8.41748H28.0435V4.41748ZM40.0435 4.41748H44.0435V8.41748H40.0435V4.41748ZM68.0435 4.41748H72.0435V8.41748H68.0435V4.41748ZM76.0435 4.41748H80.0435V8.41748H76.0435V4.41748ZM80.0435 4.41748H84.0435V8.41748H80.0435V4.41748ZM84.0435 4.41748H88.0435V8.41748H84.0435V4.41748ZM88.0435 4.41748H92.0435V8.41748H88.0435V4.41748ZM92.0435 4.41748H96.0435V8.41748H92.0435V4.41748ZM96.0435 4.41748H100.043V8.41748H96.0435V4.41748ZM100.043 4.41748H104.043V8.41748H100.043V4.41748ZM4.04346 8.41748H8.04346V12.4175H4.04346V8.41748ZM28.0435 8.41748H32.0435V12.4175H28.0435V8.41748ZM36.0435 8.41748H40.0435V12.4175H36.0435V8.41748ZM40.0435 8.41748H44.0435V12.4175H40.0435V8.41748ZM48.0435 8.41748H52.0435V12.4175H48.0435V8.41748ZM52.0435 8.41748H56.0435V12.4175H52.0435V8.41748ZM60.0435 8.41748H64.0435V12.4175H60.0435V8.41748ZM64.0435 8.41748H68.0435V12.4175H64.0435V8.41748ZM68.0435 8.41748H72.0435V12.4175H68.0435V8.41748ZM76.0435 8.41748H80.0435V12.4175H76.0435V8.41748ZM100.043 8.41748H104.043V12.4175H100.043V8.41748ZM4.04346 12.4175H8.04346V16.4175H4.04346V12.4175ZM12.0435 12.4175H16.0435V16.4175H12.0435V12.4175ZM16.0435 12.4175H20.0435V16.4175H16.0435V12.4175ZM20.0435 12.4175H24.0435V16.4175H20.0435V12.4175ZM28.0435 12.4175H32.0435V16.4175H28.0435V12.4175ZM40.0435 12.4175H44.0435V16.4175H40.0435V12.4175ZM44.0435 12.4175H48.0435V16.4175H44.0435V12.4175ZM48.0435 12.4175H52.0435V16.4175H48.0435V12.4175ZM60.0435 12.4175H64.0435V16.4175H60.0435V12.4175ZM64.0435 12.4175H68.0435V16.4175H64.0435V12.4175ZM68.0435 12.4175H72.0435V16.4175H68.0435V12.4175ZM76.0435 12.4175H80.0435V16.4175H76.0435V12.4175ZM84.0435 12.4175H88.0435V16.4175H84.0435V12.4175ZM88.0435 12.4175H92.0435V16.4175H88.0435V12.4175ZM92.0435 12.4175H96.0435V16.4175H92.0435V12.4175ZM100.043 12.4175H104.043V16.4175H100.043V12.4175ZM4.04346 16.4175H8.04346V20.4175H4.04346V16.4175ZM12.0435 16.4175H16.0435V20.4175H12.0435V16.4175ZM16.0435 16.4175H20.0435V20.4175H16.0435V16.4175ZM20.0435 16.4175H24.0435V20.4175H20.0435V16.4175ZM28.0435 16.4175H32.0435V20.4175H28.0435V16.4175ZM36.0435 16.4175H40.0435V20.4175H36.0435V16.4175ZM40.0435 16.4175H44.0435V20.4175H40.0435V16.4175ZM48.0435 16.4175H52.0435V20.4175H48.0435V16.4175ZM56.0435 16.4175H60.0435V20.4175H56.0435V16.4175ZM60.0435 16.4175H64.0435V20.4175H60.0435V16.4175ZM64.0435 16.4175H68.0435V20.4175H64.0435V16.4175ZM76.0435 16.4175H80.0435V20.4175H76.0435V16.4175ZM84.0435 16.4175H88.0435V20.4175H84.0435V16.4175ZM88.0435 16.4175H92.0435V20.4175H88.0435V16.4175ZM92.0435 16.4175H96.0435V20.4175H92.0435V16.4175ZM100.043 16.4175H104.043V20.4175H100.043V16.4175ZM4.04346 20.4175H8.04346V24.4175H4.04346V20.4175ZM12.0435 20.4175H16.0435V24.4175H12.0435V20.4175ZM16.0435 20.4175H20.0435V24.4175H16.0435V20.4175ZM20.0435 20.4175H24.0435V24.4175H20.0435V20.4175ZM28.0435 20.4175H32.0435V24.4175H28.0435V20.4175ZM44.0435 20.4175H48.0435V24.4175H44.0435V20.4175ZM52.0435 20.4175H56.0435V24.4175H52.0435V20.4175ZM68.0435 20.4175H72.0435V24.4175H68.0435V20.4175ZM76.0435 20.4175H80.0435V24.4175H76.0435V20.4175ZM84.0435 20.4175H88.0435V24.4175H84.0435V20.4175ZM88.0435 20.4175H92.0435V24.4175H88.0435V20.4175ZM92.0435 20.4175H96.0435V24.4175H92.0435V20.4175ZM100.043 20.4175H104.043V24.4175H100.043V20.4175ZM4.04346 24.4175H8.04346V28.4175H4.04346V24.4175ZM28.0435 24.4175H32.0435V28.4175H28.0435V24.4175ZM36.0435 24.4175H40.0435V28.4175H36.0435V24.4175ZM44.0435 24.4175H48.0435V28.4175H44.0435V24.4175ZM56.0435 24.4175H60.0435V28.4175H56.0435V24.4175ZM60.0435 24.4175H64.0435V28.4175H60.0435V24.4175ZM64.0435 24.4175H68.0435V28.4175H64.0435V24.4175ZM68.0435 24.4175H72.0435V28.4175H68.0435V24.4175ZM76.0435 24.4175H80.0435V28.4175H76.0435V24.4175ZM100.043 24.4175H104.043V28.4175H100.043V24.4175ZM4.04346 28.4175H8.04346V32.4175H4.04346V28.4175ZM8.04346 28.4175H12.0435V32.4175H8.04346V28.4175ZM12.0435 28.4175H16.0435V32.4175H12.0435V28.4175ZM16.0435 28.4175H20.0435V32.4175H16.0435V28.4175ZM20.0435 28.4175H24.0435V32.4175H20.0435V28.4175ZM24.0435 28.4175H28.0435V32.4175H24.0435V28.4175ZM28.0435 28.4175H32.0435V32.4175H28.0435V28.4175ZM36.0435 28.4175H40.0435V32.4175H36.0435V28.4175ZM44.0435 28.4175H48.0435V32.4175H44.0435V28.4175ZM52.0435 28.4175H56.0435V32.4175H52.0435V28.4175ZM60.0435 28.4175H64.0435V32.4175H60.0435V28.4175ZM68.0435 28.4175H72.0435V32.4175H68.0435V28.4175ZM76.0435 28.4175H80.0435V32.4175H76.0435V28.4175ZM80.0435 28.4175H84.0435V32.4175H80.0435V28.4175ZM84.0435 28.4175H88.0435V32.4175H84.0435V28.4175ZM88.0435 28.4175H92.0435V32.4175H88.0435V28.4175ZM92.0435 28.4175H96.0435V32.4175H92.0435V28.4175ZM96.0435 28.4175H100.043V32.4175H96.0435V28.4175ZM100.043 28.4175H104.043V32.4175H100.043V28.4175ZM52.0435 32.4175H56.0435V36.4175H52.0435V32.4175ZM64.0435 32.4175H68.0435V36.4175H64.0435V32.4175ZM68.0435 32.4175H72.0435V36.4175H68.0435V32.4175ZM4.04346 36.4175H8.04346V40.4175H4.04346V36.4175ZM8.04346 36.4175H12.0435V40.4175H8.04346V36.4175ZM12.0435 36.4175H16.0435V40.4175H12.0435V36.4175ZM16.0435 36.4175H20.0435V40.4175H16.0435V36.4175ZM20.0435 36.4175H24.0435V40.4175H20.0435V36.4175ZM28.0435 36.4175H32.0435V40.4175H28.0435V36.4175ZM32.0435 36.4175H36.0435V40.4175H32.0435V36.4175ZM36.0435 36.4175H40.0435V40.4175H36.0435V36.4175ZM40.0435 36.4175H44.0435V40.4175H40.0435V36.4175ZM44.0435 36.4175H48.0435V40.4175H44.0435V36.4175ZM52.0435 36.4175H56.0435V40.4175H52.0435V36.4175ZM56.0435 36.4175H60.0435V40.4175H56.0435V36.4175ZM60.0435 36.4175H64.0435V40.4175H60.0435V36.4175ZM64.0435 36.4175H68.0435V40.4175H64.0435V36.4175ZM72.0435 36.4175H76.0435V40.4175H72.0435V36.4175ZM80.0435 36.4175H84.0435V40.4175H80.0435V36.4175ZM88.0435 36.4175H92.0435V40.4175H88.0435V36.4175ZM96.0435 36.4175H100.043V40.4175H96.0435V36.4175ZM4.04346 40.4175H8.04346V44.4175H4.04346V40.4175ZM12.0435 40.4175H16.0435V44.4175H12.0435V40.4175ZM16.0435 40.4175H20.0435V44.4175H16.0435V40.4175ZM20.0435 40.4175H24.0435V44.4175H20.0435V40.4175ZM24.0435 40.4175H28.0435V44.4175H24.0435V40.4175ZM32.0435 40.4175H36.0435V44.4175H32.0435V40.4175ZM40.0435 40.4175H44.0435V44.4175H40.0435V40.4175ZM60.0435 40.4175H64.0435V44.4175H60.0435V40.4175ZM68.0435 40.4175H72.0435V44.4175H68.0435V40.4175ZM96.0435 40.4175H100.043V44.4175H96.0435V40.4175ZM4.04346 44.4175H8.04346V48.4175H4.04346V44.4175ZM8.04346 44.4175H12.0435V48.4175H8.04346V44.4175ZM12.0435 44.4175H16.0435V48.4175H12.0435V44.4175ZM16.0435 44.4175H20.0435V48.4175H16.0435V44.4175ZM28.0435 44.4175H32.0435V48.4175H28.0435V44.4175ZM40.0435 44.4175H44.0435V48.4175H40.0435V44.4175ZM48.0435 44.4175H52.0435V48.4175H48.0435V44.4175ZM52.0435 44.4175H56.0435V48.4175H52.0435V44.4175ZM56.0435 44.4175H60.0435V48.4175H56.0435V44.4175ZM64.0435 44.4175H68.0435V48.4175H64.0435V44.4175ZM68.0435 44.4175H72.0435V48.4175H68.0435V44.4175ZM72.0435 44.4175H76.0435V48.4175H72.0435V44.4175ZM88.0435 44.4175H92.0435V48.4175H88.0435V44.4175ZM96.0435 44.4175H100.043V48.4175H96.0435V44.4175ZM100.043 44.4175H104.043V48.4175H100.043V44.4175ZM4.04346 48.4175H8.04346V52.4175H4.04346V48.4175ZM8.04346 48.4175H12.0435V52.4175H8.04346V48.4175ZM12.0435 48.4175H16.0435V52.4175H12.0435V48.4175ZM36.0435 48.4175H40.0435V52.4175H36.0435V48.4175ZM40.0435 48.4175H44.0435V52.4175H40.0435V48.4175ZM44.0435 48.4175H48.0435V52.4175H44.0435V48.4175ZM48.0435 48.4175H52.0435V52.4175H48.0435V48.4175ZM60.0435 48.4175H64.0435V52.4175H60.0435V48.4175ZM64.0435 48.4175H68.0435V52.4175H64.0435V48.4175ZM68.0435 48.4175H72.0435V52.4175H68.0435V48.4175ZM80.0435 48.4175H84.0435V52.4175H80.0435V48.4175ZM100.043 48.4175H104.043V52.4175H100.043V48.4175ZM4.04346 52.4175H8.04346V56.4175H4.04346V52.4175ZM20.0435 52.4175H24.0435V56.4175H20.0435V52.4175ZM28.0435 52.4175H32.0435V56.4175H28.0435V52.4175ZM32.0435 52.4175H36.0435V56.4175H32.0435V52.4175ZM36.0435 52.4175H40.0435V56.4175H36.0435V52.4175ZM40.0435 52.4175H44.0435V56.4175H40.0435V52.4175ZM48.0435 52.4175H52.0435V56.4175H48.0435V52.4175ZM64.0435 52.4175H68.0435V56.4175H64.0435V52.4175ZM72.0435 52.4175H76.0435V56.4175H72.0435V52.4175ZM76.0435 52.4175H80.0435V56.4175H76.0435V52.4175ZM80.0435 52.4175H84.0435V56.4175H80.0435V52.4175ZM84.0435 52.4175H88.0435V56.4175H84.0435V52.4175ZM92.0435 52.4175H96.0435V56.4175H92.0435V52.4175ZM96.0435 52.4175H100.043V56.4175H96.0435V52.4175ZM100.043 52.4175H104.043V56.4175H100.043V52.4175ZM4.04346 56.4175H8.04346V60.4175H4.04346V56.4175ZM20.0435 56.4175H24.0435V60.4175H20.0435V56.4175ZM24.0435 56.4175H28.0435V60.4175H24.0435V56.4175ZM44.0435 56.4175H48.0435V60.4175H44.0435V56.4175ZM52.0435 56.4175H56.0435V60.4175H52.0435V56.4175ZM56.0435 56.4175H60.0435V60.4175H56.0435V56.4175ZM68.0435 56.4175H72.0435V60.4175H68.0435V56.4175ZM80.0435 56.4175H84.0435V60.4175H80.0435V56.4175ZM88.0435 56.4175H92.0435V60.4175H88.0435V56.4175ZM96.0435 56.4175H100.043V60.4175H96.0435V56.4175ZM4.04346 60.4175H8.04346V64.4175H4.04346V60.4175ZM20.0435 60.4175H24.0435V64.4175H20.0435V60.4175ZM24.0435 60.4175H28.0435V64.4175H24.0435V60.4175ZM28.0435 60.4175H32.0435V64.4175H28.0435V60.4175ZM32.0435 60.4175H36.0435V64.4175H32.0435V60.4175ZM40.0435 60.4175H44.0435V64.4175H40.0435V60.4175ZM44.0435 60.4175H48.0435V64.4175H44.0435V60.4175ZM56.0435 60.4175H60.0435V64.4175H56.0435V60.4175ZM60.0435 60.4175H64.0435V64.4175H60.0435V60.4175ZM64.0435 60.4175H68.0435V64.4175H64.0435V60.4175ZM72.0435 60.4175H76.0435V64.4175H72.0435V60.4175ZM80.0435 60.4175H84.0435V64.4175H80.0435V60.4175ZM84.0435 60.4175H88.0435V64.4175H84.0435V60.4175ZM88.0435 60.4175H92.0435V64.4175H88.0435V60.4175ZM96.0435 60.4175H100.043V64.4175H96.0435V60.4175ZM100.043 60.4175H104.043V64.4175H100.043V60.4175ZM4.04346 64.4175H8.04346V68.4175H4.04346V64.4175ZM12.0435 64.4175H16.0435V68.4175H12.0435V64.4175ZM16.0435 64.4175H20.0435V68.4175H16.0435V64.4175ZM36.0435 64.4175H40.0435V68.4175H36.0435V64.4175ZM52.0435 64.4175H56.0435V68.4175H52.0435V64.4175ZM56.0435 64.4175H60.0435V68.4175H56.0435V64.4175ZM72.0435 64.4175H76.0435V68.4175H72.0435V64.4175ZM76.0435 64.4175H80.0435V68.4175H76.0435V64.4175ZM80.0435 64.4175H84.0435V68.4175H80.0435V64.4175ZM84.0435 64.4175H88.0435V68.4175H84.0435V64.4175ZM100.043 64.4175H104.043V68.4175H100.043V64.4175ZM4.04346 68.4175H8.04346V72.4175H4.04346V68.4175ZM12.0435 68.4175H16.0435V72.4175H12.0435V68.4175ZM24.0435 68.4175H28.0435V72.4175H24.0435V68.4175ZM28.0435 68.4175H32.0435V72.4175H28.0435V68.4175ZM40.0435 68.4175H44.0435V72.4175H40.0435V68.4175ZM52.0435 68.4175H56.0435V72.4175H52.0435V68.4175ZM60.0435 68.4175H64.0435V72.4175H60.0435V68.4175ZM64.0435 68.4175H68.0435V72.4175H64.0435V68.4175ZM68.0435 68.4175H72.0435V72.4175H68.0435V68.4175ZM72.0435 68.4175H76.0435V72.4175H72.0435V68.4175ZM76.0435 68.4175H80.0435V72.4175H76.0435V68.4175ZM80.0435 68.4175H84.0435V72.4175H80.0435V68.4175ZM84.0435 68.4175H88.0435V72.4175H84.0435V68.4175ZM92.0435 68.4175H96.0435V72.4175H92.0435V68.4175ZM36.0435 72.4175H40.0435V76.4175H36.0435V72.4175ZM68.0435 72.4175H72.0435V76.4175H68.0435V72.4175ZM84.0435 72.4175H88.0435V76.4175H84.0435V72.4175ZM88.0435 72.4175H92.0435V76.4175H88.0435V72.4175ZM4.04346 76.4175H8.04346V80.4175H4.04346V76.4175ZM8.04346 76.4175H12.0435V80.4175H8.04346V76.4175ZM12.0435 76.4175H16.0435V80.4175H12.0435V76.4175ZM16.0435 76.4175H20.0435V80.4175H16.0435V76.4175ZM20.0435 76.4175H24.0435V80.4175H20.0435V76.4175ZM24.0435 76.4175H28.0435V80.4175H24.0435V76.4175ZM28.0435 76.4175H32.0435V80.4175H28.0435V76.4175ZM36.0435 76.4175H40.0435V80.4175H36.0435V76.4175ZM40.0435 76.4175H44.0435V80.4175H40.0435V76.4175ZM44.0435 76.4175H48.0435V80.4175H44.0435V76.4175ZM48.0435 76.4175H52.0435V80.4175H48.0435V76.4175ZM52.0435 76.4175H56.0435V80.4175H52.0435V76.4175ZM68.0435 76.4175H72.0435V80.4175H68.0435V76.4175ZM76.0435 76.4175H80.0435V80.4175H76.0435V76.4175ZM84.0435 76.4175H88.0435V80.4175H84.0435V76.4175ZM92.0435 76.4175H96.0435V80.4175H92.0435V76.4175ZM96.0435 76.4175H100.043V80.4175H96.0435V76.4175ZM100.043 76.4175H104.043V80.4175H100.043V76.4175ZM4.04346 80.4175H8.04346V84.4175H4.04346V80.4175ZM28.0435 80.4175H32.0435V84.4175H28.0435V80.4175ZM48.0435 80.4175H52.0435V84.4175H48.0435V80.4175ZM60.0435 80.4175H64.0435V84.4175H60.0435V80.4175ZM68.0435 80.4175H72.0435V84.4175H68.0435V80.4175ZM84.0435 80.4175H88.0435V84.4175H84.0435V80.4175ZM88.0435 80.4175H92.0435V84.4175H88.0435V80.4175ZM100.043 80.4175H104.043V84.4175H100.043V80.4175ZM4.04346 84.4175H8.04346V88.4175H4.04346V84.4175ZM12.0435 84.4175H16.0435V88.4175H12.0435V84.4175ZM16.0435 84.4175H20.0435V88.4175H16.0435V84.4175ZM20.0435 84.4175H24.0435V88.4175H20.0435V84.4175ZM28.0435 84.4175H32.0435V88.4175H28.0435V84.4175ZM36.0435 84.4175H40.0435V88.4175H36.0435V84.4175ZM40.0435 84.4175H44.0435V88.4175H40.0435V84.4175ZM48.0435 84.4175H52.0435V88.4175H48.0435V84.4175ZM64.0435 84.4175H68.0435V88.4175H64.0435V84.4175ZM68.0435 84.4175H72.0435V88.4175H68.0435V84.4175ZM72.0435 84.4175H76.0435V88.4175H72.0435V84.4175ZM76.0435 84.4175H80.0435V88.4175H76.0435V84.4175ZM80.0435 84.4175H84.0435V88.4175H80.0435V84.4175ZM84.0435 84.4175H88.0435V88.4175H84.0435V84.4175ZM92.0435 84.4175H96.0435V88.4175H92.0435V84.4175ZM96.0435 84.4175H100.043V88.4175H96.0435V84.4175ZM100.043 84.4175H104.043V88.4175H100.043V84.4175ZM4.04346 88.4175H8.04346V92.4175H4.04346V88.4175ZM12.0435 88.4175H16.0435V92.4175H12.0435V88.4175ZM16.0435 88.4175H20.0435V92.4175H16.0435V88.4175ZM20.0435 88.4175H24.0435V92.4175H20.0435V88.4175ZM28.0435 88.4175H32.0435V92.4175H28.0435V88.4175ZM36.0435 88.4175H40.0435V92.4175H36.0435V88.4175ZM52.0435 88.4175H56.0435V92.4175H52.0435V88.4175ZM56.0435 88.4175H60.0435V92.4175H56.0435V88.4175ZM60.0435 88.4175H64.0435V92.4175H60.0435V88.4175ZM68.0435 88.4175H72.0435V92.4175H68.0435V88.4175ZM72.0435 88.4175H76.0435V92.4175H72.0435V88.4175ZM76.0435 88.4175H80.0435V92.4175H76.0435V88.4175ZM84.0435 88.4175H88.0435V92.4175H84.0435V88.4175ZM88.0435 88.4175H92.0435V92.4175H88.0435V88.4175ZM92.0435 88.4175H96.0435V92.4175H92.0435V88.4175ZM96.0435 88.4175H100.043V92.4175H96.0435V88.4175ZM100.043 88.4175H104.043V92.4175H100.043V88.4175ZM4.04346 92.4175H8.04346V96.4175H4.04346V92.4175ZM12.0435 92.4175H16.0435V96.4175H12.0435V92.4175ZM16.0435 92.4175H20.0435V96.4175H16.0435V92.4175ZM20.0435 92.4175H24.0435V96.4175H20.0435V92.4175ZM28.0435 92.4175H32.0435V96.4175H28.0435V92.4175ZM36.0435 92.4175H40.0435V96.4175H36.0435V92.4175ZM40.0435 92.4175H44.0435V96.4175H40.0435V92.4175ZM44.0435 92.4175H48.0435V96.4175H44.0435V92.4175ZM56.0435 92.4175H60.0435V96.4175H56.0435V92.4175ZM60.0435 92.4175H64.0435V96.4175H60.0435V92.4175ZM68.0435 92.4175H72.0435V96.4175H68.0435V92.4175ZM88.0435 92.4175H92.0435V96.4175H88.0435V92.4175ZM92.0435 92.4175H96.0435V96.4175H92.0435V92.4175ZM100.043 92.4175H104.043V96.4175H100.043V92.4175ZM4.04346 96.4175H8.04346V100.417H4.04346V96.4175ZM28.0435 96.4175H32.0435V100.417H28.0435V96.4175ZM36.0435 96.4175H40.0435V100.417H36.0435V96.4175ZM40.0435 96.4175H44.0435V100.417H40.0435V96.4175ZM44.0435 96.4175H48.0435V100.417H44.0435V96.4175ZM52.0435 96.4175H56.0435V100.417H52.0435V96.4175ZM56.0435 96.4175H60.0435V100.417H56.0435V96.4175ZM64.0435 96.4175H68.0435V100.417H64.0435V96.4175ZM68.0435 96.4175H72.0435V100.417H68.0435V96.4175ZM72.0435 96.4175H76.0435V100.417H72.0435V96.4175ZM76.0435 96.4175H80.0435V100.417H76.0435V96.4175ZM80.0435 96.4175H84.0435V100.417H80.0435V96.4175ZM84.0435 96.4175H88.0435V100.417H84.0435V96.4175ZM88.0435 96.4175H92.0435V100.417H88.0435V96.4175ZM100.043 96.4175H104.043V100.417H100.043V96.4175ZM4.04346 100.417H8.04346V104.417H4.04346V100.417ZM8.04346 100.417H12.0435V104.417H8.04346V100.417ZM12.0435 100.417H16.0435V104.417H12.0435V100.417ZM16.0435 100.417H20.0435V104.417H16.0435V100.417ZM20.0435 100.417H24.0435V104.417H20.0435V100.417ZM24.0435 100.417H28.0435V104.417H24.0435V100.417ZM28.0435 100.417H32.0435V104.417H28.0435V100.417ZM36.0435 100.417H40.0435V104.417H36.0435V100.417ZM44.0435 100.417H48.0435V104.417H44.0435V100.417ZM52.0435 100.417H56.0435V104.417H52.0435V100.417ZM60.0435 100.417H64.0435V104.417H60.0435V100.417ZM64.0435 100.417H68.0435V104.417H64.0435V100.417ZM72.0435 100.417H76.0435V104.417H72.0435V100.417ZM76.0435 100.417H80.0435V104.417H76.0435V100.417ZM80.0435 100.417H84.0435V104.417H80.0435V100.417ZM84.0435 100.417H88.0435V104.417H84.0435V100.417ZM88.0435 100.417H92.0435V104.417H88.0435V100.417ZM92.0435 100.417H96.0435V104.417H92.0435V100.417ZM96.0435 100.417H100.043V104.417H96.0435V100.417ZM100.043 100.417H104.043V104.417H100.043V100.417Z" fill="#174BD0"/>
</g>
<defs>
<clipPath id="clip0_479_4989">
<rect width="108" height="108" fill="white" transform="translate(0.043457 0.41748)"/>
</clipPath>
</defs>
</svg>
