<svg width="30" height="29" viewBox="0 0 30 29" fill="none" xmlns="http://www.w3.org/2000/svg">
<g filter="url(#filter0_di_493_7041)">
<path d="M15 1.5C8.376 1.5 3 6.876 3 13.5C3 20.124 8.376 25.5 15 25.5C21.624 25.5 27 20.124 27 13.5C27 6.876 21.624 1.5 15 1.5ZM20.568 9.66C20.388 11.556 19.608 16.164 19.212 18.288C19.044 19.188 18.708 19.488 18.396 19.524C17.7 19.584 17.172 19.068 16.5 18.624C15.444 17.928 14.844 17.496 13.824 16.824C12.636 16.044 13.404 15.612 14.088 14.916C14.268 14.736 17.34 11.94 17.4 11.688C17.4083 11.6498 17.4072 11.6102 17.3968 11.5726C17.3863 11.5349 17.3668 11.5004 17.34 11.472C17.268 11.412 17.172 11.436 17.088 11.448C16.98 11.472 15.3 12.588 12.024 14.796C11.544 15.12 11.112 15.288 10.728 15.276C10.296 15.264 9.48 15.036 8.868 14.832C8.112 14.592 7.524 14.46 7.572 14.04C7.596 13.824 7.896 13.608 8.46 13.38C11.964 11.856 14.292 10.848 15.456 10.368C18.792 8.976 19.476 8.736 19.932 8.736C20.028 8.736 20.256 8.76 20.4 8.88C20.52 8.976 20.556 9.108 20.568 9.204C20.556 9.276 20.58 9.492 20.568 9.66Z" fill="white"/>
</g>
<defs>
<filter id="filter0_di_493_7041" x="0.923176" y="0.346209" width="28.1536" height="28.1536" filterUnits="userSpaceOnUse" color-interpolation-filters="sRGB">
<feFlood flood-opacity="0" result="BackgroundImageFix"/>
<feColorMatrix in="SourceAlpha" type="matrix" values="0 0 0 0 0 0 0 0 0 0 0 0 0 0 0 0 0 0 127 0" result="hardAlpha"/>
<feOffset dy="0.923033"/>
<feGaussianBlur stdDeviation="1.03841"/>
<feComposite in2="hardAlpha" operator="out"/>
<feColorMatrix type="matrix" values="0 0 0 0 0.952941 0 0 0 0 0.94902 0 0 0 0 0.929412 0 0 0 0.33 0"/>
<feBlend mode="normal" in2="BackgroundImageFix" result="effect1_dropShadow_493_7041"/>
<feBlend mode="normal" in="SourceGraphic" in2="effect1_dropShadow_493_7041" result="shape"/>
<feColorMatrix in="SourceAlpha" type="matrix" values="0 0 0 0 0 0 0 0 0 0 0 0 0 0 0 0 0 0 127 0" result="hardAlpha"/>
<feOffset dx="0.461516" dy="0.923033"/>
<feGaussianBlur stdDeviation="0.461516"/>
<feComposite in2="hardAlpha" operator="arithmetic" k2="-1" k3="1"/>
<feColorMatrix type="matrix" values="0 0 0 0 0 0 0 0 0 0 0 0 0 0 0 0 0 0 0.25 0"/>
<feBlend mode="normal" in2="shape" result="effect2_innerShadow_493_7041"/>
</filter>
</defs>
</svg>
