<svg width="39" height="39" viewBox="0 0 39 39" fill="none" xmlns="http://www.w3.org/2000/svg">
<g filter="url(#filter0_di_479_4996)">
<path d="M19.5645 1.0083C9.65786 1.0083 1.61768 9.04849 1.61768 18.9552C1.61768 28.8618 9.65786 36.902 19.5645 36.902C29.4712 36.902 37.5114 28.8618 37.5114 18.9552C37.5114 9.04849 29.4712 1.0083 19.5645 1.0083ZM27.8919 13.2122C27.6227 16.0478 26.4561 22.9394 25.8639 26.1159C25.6126 27.462 25.1101 27.9106 24.6435 27.9645C23.6026 28.0542 22.8129 27.2825 21.8079 26.6185C20.2286 25.5775 19.3312 24.9315 17.8057 23.9264C16.029 22.7599 17.1776 22.1138 18.2006 21.0729C18.4698 20.8037 23.0642 16.6221 23.1539 16.2452C23.1664 16.1881 23.1647 16.1288 23.1491 16.0725C23.1334 16.0162 23.1043 15.9646 23.0642 15.9221C22.9565 15.8324 22.8129 15.8683 22.6873 15.8862C22.5258 15.9221 20.0132 17.5912 15.1137 20.8934C14.3958 21.378 13.7497 21.6292 13.1754 21.6113C12.5294 21.5933 11.309 21.2523 10.3937 20.9473C9.26303 20.5883 8.38364 20.3909 8.45543 19.7628C8.49132 19.4397 8.93999 19.1167 9.78349 18.7757C15.024 16.4964 18.5057 14.9889 20.2465 14.271C25.2357 12.1892 26.2587 11.8303 26.9407 11.8303C27.0843 11.8303 27.4252 11.8661 27.6406 12.0456C27.8201 12.1892 27.8739 12.3866 27.8919 12.5302C27.8739 12.6379 27.9098 12.9609 27.8919 13.2122Z" fill="#174BD0"/>
</g>
<defs>
<filter id="filter0_di_479_4996" x="0.163974" y="0.200689" width="38.801" height="38.801" filterUnits="userSpaceOnUse" color-interpolation-filters="sRGB">
<feFlood flood-opacity="0" result="BackgroundImageFix"/>
<feColorMatrix in="SourceAlpha" type="matrix" values="0 0 0 0 0 0 0 0 0 0 0 0 0 0 0 0 0 0 127 0" result="hardAlpha"/>
<feOffset dy="0.64609"/>
<feGaussianBlur stdDeviation="0.726851"/>
<feComposite in2="hardAlpha" operator="out"/>
<feColorMatrix type="matrix" values="0 0 0 0 0.952941 0 0 0 0 0.94902 0 0 0 0 0.929412 0 0 0 0.33 0"/>
<feBlend mode="normal" in2="BackgroundImageFix" result="effect1_dropShadow_479_4996"/>
<feBlend mode="normal" in="SourceGraphic" in2="effect1_dropShadow_479_4996" result="shape"/>
<feColorMatrix in="SourceAlpha" type="matrix" values="0 0 0 0 0 0 0 0 0 0 0 0 0 0 0 0 0 0 127 0" result="hardAlpha"/>
<feOffset dx="0.323045" dy="0.64609"/>
<feGaussianBlur stdDeviation="0.323045"/>
<feComposite in2="hardAlpha" operator="arithmetic" k2="-1" k3="1"/>
<feColorMatrix type="matrix" values="0 0 0 0 0 0 0 0 0 0 0 0 0 0 0 0 0 0 0.25 0"/>
<feBlend mode="normal" in2="shape" result="effect2_innerShadow_479_4996"/>
</filter>
</defs>
</svg>
